<svg width="11" height="24" viewBox="0 0 11 24" fill="none" xmlns="http://www.w3.org/2000/svg">
<path d="M8.41006 0.063097C8.35777 0.140755 8.37519 0.25724 8.45487 0.354313C8.48475 0.390715 8.52708 0.495066 8.55198 0.58243C8.63166 0.8785 8.5968 0.951303 8.49969 0.684357C8.42001 0.46109 8.29053 0.194143 8.22828 0.12134L8.17351 0.0606709L8.09881 0.140755C8.00917 0.235399 8.00917 0.24996 8.08387 0.46837C8.14612 0.645527 8.20588 0.922182 8.18845 0.941597C8.17849 0.951303 8.16106 0.897915 8.0515 0.519335C7.96684 0.232973 7.85479 0.114059 7.75021 0.206278C7.678 0.269375 7.66804 0.366446 7.71535 0.548456C7.77262 0.779001 7.82242 1.07507 7.80748 1.09934C7.80001 1.11147 7.7776 1.10419 7.75519 1.08235C7.73029 1.06294 7.68049 1.0411 7.63816 1.03139C7.59832 1.02168 7.51117 0.994986 7.44892 0.970718C7.2547 0.893061 7.0555 0.873646 6.72184 0.902767C6.35083 0.931889 6.24625 0.975571 6.10432 1.15515C5.91757 1.39055 5.87026 1.68905 5.95741 2.07491C6.05452 2.50688 6.04705 2.61123 5.89765 3.00195C5.8603 3.09659 5.86279 3.11115 5.92006 3.2786L5.98231 3.45333L5.93002 3.53827C5.90263 3.58438 5.8852 3.63776 5.89267 3.65475C5.90014 3.67174 5.89516 3.69358 5.88271 3.70086C5.8354 3.72998 5.60632 4.09158 5.58391 4.17409C5.55901 4.27116 5.39716 5.12296 5.37475 5.29284C5.34238 5.51368 5.35234 5.82188 5.39218 5.88255C5.437 5.94807 5.64367 6.08155 5.7358 6.10339C5.79805 6.11795 5.80303 6.13251 5.85781 6.45042C5.88769 6.63243 5.93998 6.88724 5.97235 7.02072L6.03211 7.26097L5.88769 7.41386C5.80801 7.4988 5.72833 7.59829 5.70841 7.63712C5.68849 7.67352 5.6362 7.75846 5.59387 7.82641C5.48929 7.98901 5.27764 8.37244 5.29258 8.37244C5.29756 8.37244 5.36728 8.26809 5.44696 8.13947C5.52415 8.01328 5.59138 7.91135 5.59636 7.9162C5.62126 7.94047 5.54905 8.21227 5.48431 8.33604C5.39965 8.49863 5.0386 8.98885 5.01619 8.96943C5.01121 8.96215 5.04358 8.88207 5.09338 8.79228C5.18551 8.61997 5.2627 8.44525 5.25025 8.44525C5.24527 8.44525 5.18302 8.54232 5.1133 8.66123C4.85434 9.10776 4.66759 9.3019 4.19948 9.62224C3.59441 10.0348 3.20099 10.4085 3.06653 10.6949C2.91464 11.0176 2.91713 11.3914 3.07898 11.7069C3.17858 11.9083 3.323 12.0612 3.54212 12.2068C3.71891 12.3233 4.1198 12.515 4.23683 12.5368C4.27916 12.5465 4.32149 12.5635 4.32896 12.5732C4.33642 12.5854 4.35883 12.5951 4.38125 12.5951C4.40366 12.5951 4.43353 12.6121 4.45096 12.6363C4.47088 12.663 4.48582 12.6679 4.49827 12.6485C4.50823 12.6315 4.50325 12.6193 4.48831 12.6193C4.47337 12.6193 4.46839 12.6072 4.47586 12.5951C4.52068 12.5223 4.53562 12.5562 4.66261 13.0804C4.74976 13.4396 4.81201 13.6143 4.9639 13.9347C5.15563 14.3424 5.24029 14.852 5.16061 15.1456C5.13073 15.2597 4.93402 15.8542 4.92157 15.8688C4.90414 15.8882 4.41361 15.5679 3.96791 15.2451C3.69899 15.0486 3.37778 14.8253 3.25577 14.7476C3.13127 14.6675 2.8748 14.505 2.68307 14.3836C2.49134 14.2623 2.18756 14.0948 2.00579 14.0099C1.28618 13.6726 0.808104 13.6798 0.247856 14.0439C-0.0534336 14.2404 -0.0633935 14.3399 0.128336 15.3058C0.188096 15.6067 0.222956 15.6868 0.491875 16.1382C0.718464 16.5143 0.825534 16.6575 1.21148 17.0895C1.34594 17.2399 1.49783 17.4244 1.54514 17.4972C1.59245 17.57 1.66466 17.6574 1.7045 17.6889C1.74434 17.718 1.86137 17.8491 1.96595 17.9801C2.07053 18.1087 2.28218 18.3611 2.43407 18.5407C2.58845 18.7203 2.72291 18.895 2.73287 18.929C2.76275 19.0212 2.91215 19.2396 2.96942 19.2736C3.02918 19.31 3.49979 19.9167 3.67907 20.1885C3.74381 20.2856 3.84092 20.4627 3.89321 20.5792C4.08494 21.0112 4.30406 22.0765 4.33145 22.7051L4.34639 23.0497L4.18703 23.1977L4.02767 23.3433L4.03514 23.5448C4.03763 23.654 4.05257 23.7559 4.06502 23.768C4.07996 23.7826 4.07498 23.8069 4.04759 23.836C4.01522 23.8724 4.01273 23.8918 4.03514 23.9403C4.07 24.0131 4.12976 24.018 4.36381 23.9622C4.52566 23.9258 5.57146 23.5084 5.62624 23.4574C5.64865 23.4356 5.64616 23.3603 5.60881 23.1152C5.55901 22.79 5.54158 22.2974 5.58391 22.3872C5.59636 22.4139 5.68102 22.7075 5.77315 23.0424C5.86279 23.3749 5.93998 23.6637 5.94745 23.6782C5.9599 23.7195 6.06448 23.7171 6.16906 23.6758C6.21637 23.6564 6.25621 23.6346 6.25621 23.6297C6.25621 23.6248 6.22882 23.5399 6.19396 23.4404C6.07693 23.1128 5.78311 21.977 5.76817 21.8047C5.75572 21.6737 5.76319 21.5863 5.80552 21.4286C5.87275 21.1665 5.87275 21.1083 5.79556 21.0209C5.7607 20.9796 5.73331 20.9238 5.73331 20.8923C5.73331 20.7564 5.64616 20.5695 5.52166 20.4457C5.45443 20.3778 5.36977 20.305 5.33989 20.2856C5.28013 20.2516 5.28013 20.2492 5.32246 20.1472C5.38222 20.0065 5.42704 20.0235 5.49676 20.2128C5.56399 20.3924 5.65114 20.4894 5.74327 20.4894C5.85532 20.4894 5.88769 20.4409 5.87026 20.3074C5.85283 20.1958 5.85532 20.1909 5.91508 20.1909C5.9599 20.1909 5.9848 20.2103 6.00721 20.2637C6.04705 20.356 6.22135 20.4821 6.3085 20.4821C6.41557 20.4821 6.46288 20.3948 6.42055 20.2686C6.40312 20.2225 6.41059 20.2152 6.47533 20.2152C6.5326 20.2152 6.56995 20.237 6.6322 20.3147C6.72433 20.4263 6.79654 20.4627 6.86377 20.4288C6.90361 20.4069 6.90859 20.3851 6.89614 20.2759L6.88369 20.1472L7.04803 20.0817C7.23976 20.0016 7.48378 19.8415 7.65808 19.6789L7.7776 19.5672L7.93447 19.6692C8.02162 19.725 8.16355 19.7954 8.2507 19.8245C8.46235 19.8949 8.87319 19.9288 9.10974 19.8973C9.30396 19.8706 9.55047 19.7978 9.61023 19.7493C9.6675 19.7031 9.6924 19.7687 9.6924 19.9725C9.6924 20.1642 9.64509 20.3268 9.53055 20.5161C9.42597 20.6933 9.36372 20.9141 9.37119 21.0888C9.37617 21.1786 9.36621 21.2684 9.34878 21.3C9.30147 21.3849 9.31392 21.4674 9.39858 21.63C9.49071 21.8072 9.52308 21.9795 9.48822 22.1324C9.47577 22.1906 9.46581 22.3289 9.46581 22.4357C9.46581 22.5425 9.44589 22.6881 9.42597 22.7585C9.39111 22.8677 9.39111 22.9017 9.4185 22.9817C9.4434 23.0594 9.44589 23.1201 9.42099 23.3021C9.40356 23.4258 9.38115 23.569 9.3687 23.62C9.3438 23.7316 9.38613 23.7826 9.50067 23.7826C9.63762 23.7826 9.64758 23.7607 9.68493 23.4404C9.70485 23.2754 9.72477 23.1371 9.72975 23.1298C9.73473 23.1249 9.95385 23.1735 10.2128 23.2366C10.6984 23.353 10.7606 23.3579 10.8627 23.2778C10.9075 23.2438 10.9225 23.1953 10.9424 23.0181C10.9548 22.8992 10.9772 22.7925 10.9922 22.7852C11.0345 22.7585 10.8951 22.5255 10.8129 22.4842C10.7531 22.4551 10.7382 22.4309 10.7382 22.3653C10.7382 22.3217 10.7158 22.0887 10.6884 21.846C10.661 21.6058 10.6386 21.3339 10.6361 21.2417C10.6336 21.0136 10.6834 20.6642 10.7407 20.5113C10.798 20.3584 10.8004 20.2152 10.7482 20.0817C10.6934 19.941 10.6759 19.5721 10.7133 19.2785C10.7357 19.0795 10.7357 19.0091 10.7133 18.9533C10.6909 18.8999 10.6909 18.8271 10.7133 18.6329C10.7282 18.4946 10.7531 18.2786 10.7656 18.1524C10.7805 18.0262 10.8079 17.8612 10.8328 17.7884C10.8552 17.7156 10.8751 17.5724 10.8751 17.4729C10.8776 17.3734 10.8876 17.155 10.8976 16.9876C10.915 16.7133 10.9125 16.6697 10.8627 16.5143C10.8328 16.4197 10.7755 16.2886 10.7382 16.2207C10.6984 16.1552 10.656 16.029 10.6386 15.9416C10.5813 15.6164 10.3174 15.233 10.0559 15.0995C9.9414 15.0413 9.90405 15.034 9.68991 15.0364L9.45087 15.0388L9.33633 14.8544C9.1944 14.6239 9.12966 14.4952 9.05496 14.3011C9.02259 14.2162 8.93793 14.0244 8.86821 13.874C8.61672 13.3425 8.5719 13.1435 8.5719 12.5781C8.5719 12.2383 8.57937 12.1534 8.63664 11.935C8.72628 11.5831 8.73375 11.5418 8.69889 11.5612C8.64909 11.5928 8.66901 11.5346 8.7213 11.5006C8.75616 11.4787 8.78853 11.4059 8.81841 11.2846C8.84331 11.1851 8.89311 10.9982 8.92797 10.872C9.15456 10.0639 9.20436 9.06893 9.06741 8.15403C9.03753 7.95746 8.92797 7.51336 8.8458 7.25612C8.77608 7.03528 8.77857 7.028 8.89311 7.04741C8.96283 7.05712 8.99769 7.05227 9.01263 7.03042C9.05247 6.96733 9.23673 6.84356 9.27159 6.8557C9.294 6.86298 9.37119 6.82172 9.45336 6.75862C9.53304 6.69795 9.6177 6.64942 9.64011 6.64942C9.69987 6.64942 9.87666 6.46498 9.9414 6.33393C9.97377 6.27326 10.041 6.16406 10.0933 6.09126C10.2053 5.93594 10.2551 5.80732 10.29 5.58891C10.3049 5.50154 10.3348 5.40447 10.3597 5.36807C10.3821 5.3341 10.4095 5.22974 10.417 5.1351C10.4344 4.97493 10.4269 4.94095 10.3273 4.64731C10.173 4.1935 10.1232 3.9945 10.1033 3.76638C10.0808 3.4776 10.0335 3.32714 9.87915 3.04077C9.62019 2.55784 9.47577 2.39525 9.17697 2.25207C9.04002 2.18654 8.97528 2.17198 8.72628 2.15257C8.56692 2.14286 8.29053 2.13801 8.11624 2.14529C7.76764 2.16227 7.50868 2.14286 7.54603 2.10646C7.5784 2.07491 7.93198 2.01424 8.09383 2.01424C8.21584 2.01424 8.22828 2.00939 8.29303 1.91959C8.33037 1.86621 8.40508 1.80311 8.45737 1.78127C8.5221 1.75215 8.56443 1.71089 8.58684 1.6575C8.60676 1.61382 8.65407 1.56285 8.6964 1.54101C8.79351 1.49248 8.81343 1.45122 8.85825 1.20126C8.91054 0.910048 8.90556 0.715904 8.8458 0.543602C8.78355 0.366446 8.52957 0 8.46981 0C8.45986 0 8.43495 0.0291214 8.41006 0.063097ZM10.1157 5.27828C10.0983 5.29769 10.0759 5.31468 10.0634 5.31468C10.031 5.31468 10.036 5.25644 10.0709 5.22246C10.1157 5.17878 10.158 5.22974 10.1157 5.27828ZM10.0186 5.67142C9.99618 5.71025 9.99369 5.70782 9.9912 5.64958C9.9912 5.6156 9.99867 5.56464 10.0111 5.54037C10.0261 5.50397 10.031 5.5064 10.036 5.56221C10.041 5.59862 10.0335 5.64715 10.0186 5.67142ZM10.1904 5.66656C10.1904 5.70054 10.1804 5.72724 10.1655 5.72724C10.1381 5.72724 10.1306 5.64715 10.158 5.62288C10.1854 5.59619 10.1904 5.60347 10.1904 5.66656ZM10.0335 5.92623C10.0261 5.94565 10.0186 5.93837 10.0186 5.91167C10.0161 5.88498 10.0236 5.87042 10.031 5.88012C10.0385 5.8874 10.041 5.90924 10.0335 5.92623ZM9.05496 9.81881C9.03504 10.0032 9.00267 10.178 8.98773 10.2047C8.97279 10.2314 8.94789 10.2969 8.93046 10.3503L8.89809 10.4474V10.3673C8.8956 10.2629 8.94042 9.97655 8.98524 9.79212C9.09729 9.35529 9.10974 9.36257 9.05496 9.81881ZM4.65763 19.5915C4.73482 19.6498 4.84687 19.7274 4.90165 19.7638C5.00374 19.8293 5.00623 19.8318 4.97884 19.9143C4.9639 19.9604 4.94398 19.9944 4.93402 19.9919C4.90663 19.9798 4.48831 19.526 4.48831 19.5041C4.48831 19.4726 4.5157 19.4872 4.65763 19.5915ZM4.87426 19.9968C4.89916 20.0235 4.9141 20.0453 4.90663 20.0453C4.89916 20.0453 4.87426 20.0235 4.84936 19.9968C4.82446 19.9701 4.80952 19.9482 4.81699 19.9482C4.82446 19.9482 4.84936 19.9701 4.87426 19.9968Z" fill="#7E1D32"/>
</svg>
