<svg width="25" height="24" viewBox="0 0 25 24" fill="none" xmlns="http://www.w3.org/2000/svg">
<path d="M22.4286 16.74V4.67001C22.4286 3.47001 21.4486 2.58001 20.2586 2.68001H20.1986C18.0986 2.86001 14.9086 3.93001 13.1286 5.05001L12.9586 5.16001C12.6686 5.34001 12.1886 5.34001 11.8986 5.16001L11.6486 5.01001C9.86859 3.90001 6.68859 2.84001 4.58859 2.67001C3.39859 2.57001 2.42859 3.47001 2.42859 4.66001V16.74C2.42859 17.7 3.20859 18.6 4.16859 18.72L4.45859 18.76C6.62859 19.05 9.97859 20.15 11.8986 21.2L11.9386 21.22C12.2086 21.37 12.6386 21.37 12.8986 21.22C14.8186 20.16 18.1786 19.05 20.3586 18.76L20.6886 18.72C21.6486 18.6 22.4286 17.7 22.4286 16.74Z" stroke="#7E1D32" stroke-width="1.5" stroke-linecap="round" stroke-linejoin="round"/>
<path d="M12.4286 5.48999V20.49" stroke="#7E1D32" stroke-width="1.5" stroke-linecap="round" stroke-linejoin="round"/>
<path d="M8.17859 8.48999H5.92859" stroke="#7E1D32" stroke-width="1.5" stroke-linecap="round" stroke-linejoin="round"/>
<path d="M8.92859 11.49H5.92859" stroke="#7E1D32" stroke-width="1.5" stroke-linecap="round" stroke-linejoin="round"/>
</svg>
