<svg width="25" height="24" viewBox="0 0 25 24" fill="none" xmlns="http://www.w3.org/2000/svg">
<path d="M2.57576 7.78001V17.51C2.57576 19.41 3.92576 20.19 5.56576 19.25L7.91576 17.91C8.42576 17.62 9.27576 17.59 9.80576 17.86L15.0558 20.49C15.5858 20.75 16.4358 20.73 16.9458 20.44L21.2758 17.96C21.8258 17.64 22.2858 16.86 22.2858 16.22V6.49001C22.2858 4.59001 20.9358 3.81001 19.2958 4.75001L16.9458 6.09001C16.4358 6.38001 15.5858 6.41001 15.0558 6.14001L9.80576 3.52001C9.27576 3.26001 8.42576 3.28001 7.91576 3.57001L3.58576 6.05001C3.02576 6.37001 2.57576 7.15001 2.57576 7.78001Z" stroke="#7E1D32" stroke-width="1.5" stroke-linecap="round" stroke-linejoin="round"/>
<path d="M8.84576 4V17" stroke="#7E1D32" stroke-width="1.5" stroke-linecap="round" stroke-linejoin="round"/>
<path d="M16.0158 6.62V20" stroke="#7E1D32" stroke-width="1.5" stroke-linecap="round" stroke-linejoin="round"/>
</svg>
