<svg width="13" height="24" viewBox="0 0 13 24" fill="none" xmlns="http://www.w3.org/2000/svg">
<g clip-path="url(#clip0_5_79)">
<path d="M6.8384 0.0280609C6.32465 0.172436 5.7509 0.866186 5.48278 1.66869C5.31403 2.17681 5.27465 2.42994 5.24465 3.25306C5.23528 3.54181 5.21653 3.86244 5.20528 3.96369C5.15278 4.40993 5.2634 4.76244 5.53528 5.03431C5.60653 5.10556 5.7134 5.18806 5.76965 5.21619L5.8709 5.26869H5.66653C5.39465 5.26869 5.14715 5.23869 5.0159 5.18994C4.9259 5.15806 4.87903 5.15244 4.72528 5.15993C4.62215 5.16556 4.50028 5.18431 4.44778 5.20119C4.17028 5.29681 3.84403 5.50306 3.6659 5.69431C3.60028 5.76556 3.5684 5.82181 3.5384 5.91744C3.47465 6.12181 3.42778 6.44244 3.4034 6.82306C3.38278 7.18119 3.38278 7.17931 3.44465 8.05306C3.46153 8.27619 3.44465 8.86681 3.41653 9.11244C3.4109 9.15931 3.39778 9.31119 3.3884 9.44994C3.37528 9.63744 3.3584 9.73869 3.32278 9.84369C3.26278 10.0218 3.07903 10.3987 2.97965 10.5524C2.88028 10.7062 2.75653 11.0043 2.64778 11.3531C2.41528 12.0974 2.19028 12.6974 2.05528 12.9281C2.0309 12.9693 1.97465 13.0499 1.93153 13.1062C1.85465 13.2074 1.8059 13.3462 1.82653 13.4006C1.84715 13.4512 1.77403 13.5862 1.67653 13.6818C1.62403 13.7362 1.50403 13.8374 1.41028 13.9068C1.20028 14.0662 1.19278 14.0868 1.24903 14.3287C1.29965 14.5499 1.43278 14.8274 1.53965 14.9343C1.64278 15.0356 1.77215 15.1124 1.8959 15.1406C1.9484 15.1537 2.0309 15.1837 2.07965 15.2062C2.18653 15.2587 2.2259 15.2399 2.2259 15.1349C2.2259 15.0824 2.2109 15.0543 2.15465 15.0018L2.0834 14.9324L2.12465 14.9006C2.14903 14.8837 2.18465 14.8687 2.20715 14.8687C2.22778 14.8687 2.26715 14.8481 2.29153 14.8218L2.3384 14.7768L2.3834 14.8649C2.40778 14.9137 2.48465 15.0318 2.55403 15.1293L2.68153 15.3056L2.67028 15.5793C2.66278 15.7293 2.64778 15.9918 2.6384 16.1624C2.61778 16.4756 2.62528 17.0024 2.65903 17.5687C2.67965 17.9324 2.73028 18.5212 2.7434 18.5643C2.74903 18.5868 2.7359 18.5999 2.70028 18.6074C2.61965 18.6281 2.4734 18.7312 2.23715 18.9337C2.0759 19.0743 2.00278 19.1249 1.9409 19.1399C1.84715 19.1643 1.80965 19.1981 1.68778 19.3649C1.61653 19.4643 1.6034 19.4924 1.61278 19.5468C1.62028 19.5956 1.61465 19.6181 1.57715 19.6518C1.51903 19.7062 1.5059 19.7512 1.5359 19.8037C1.54903 19.8281 1.5584 19.8806 1.56028 19.9218C1.56028 19.9893 1.56778 20.0006 1.62965 20.0306C1.68778 20.0587 1.7009 20.0756 1.7009 20.1187C1.7009 20.1899 1.7534 20.2181 1.87153 20.2087C1.9559 20.2031 1.9634 20.2068 1.9634 20.2462C1.9634 20.2687 1.97653 20.3174 1.98965 20.3531C2.01403 20.4074 2.02715 20.4187 2.0759 20.4187C2.10778 20.4187 2.1884 20.3924 2.25778 20.3624C2.32528 20.3306 2.39653 20.3062 2.4134 20.3062C2.43215 20.3062 2.49028 20.2762 2.54465 20.2387C2.59715 20.2031 2.6459 20.1768 2.6534 20.1824C2.65903 20.1899 2.66465 20.3906 2.66465 20.6306C2.66465 20.9737 2.65715 21.1124 2.62903 21.2906C2.55778 21.7237 2.59528 21.9993 2.79028 22.4718C2.88965 22.7137 3.07528 23.0437 3.19153 23.1862C3.39778 23.4374 3.93028 23.6924 4.50965 23.8124C4.7459 23.8631 5.09653 23.8931 5.24278 23.8781C5.77715 23.8218 6.18778 23.4299 6.2384 22.9312L6.25153 22.7906L6.25528 22.9706C6.25715 23.1318 6.26278 23.1618 6.31528 23.2668C6.3584 23.3549 6.39028 23.3924 6.4334 23.4093C6.4709 23.4262 6.51965 23.4787 6.57215 23.5556C6.8084 23.9193 7.19653 24.0599 7.70653 23.9718C8.13778 23.8968 8.71153 23.6343 9.15028 23.3099C9.39215 23.1299 10.024 22.2674 10.1384 21.9581C10.2284 21.7199 10.399 21.3412 10.639 20.8424C10.7797 20.5537 10.9372 20.2143 10.9915 20.0924L11.089 19.8674L11.1903 19.8318C11.3497 19.7756 11.3834 19.7737 11.4659 19.8168C11.5559 19.8637 11.6403 19.8656 11.8072 19.8299C11.8747 19.8149 12.0078 19.7943 12.1015 19.7831C12.2328 19.7699 12.3003 19.7512 12.3734 19.7118L12.4728 19.6593L12.4709 19.5637C12.469 19.4662 12.4184 19.3443 12.3584 19.2918C12.3378 19.2749 12.2909 19.2468 12.2534 19.2281C12.2028 19.2056 12.1559 19.1568 12.094 19.0631C12.0453 18.9881 11.9403 18.8662 11.8634 18.7874C11.7847 18.7106 11.6609 18.5587 11.5878 18.4499C11.3478 18.0993 11.2015 17.9849 10.9353 17.9418C10.7722 17.9156 10.6147 17.9437 10.534 18.0093C10.5059 18.0356 10.4609 18.0993 10.4365 18.1537C10.3972 18.2418 10.3915 18.2831 10.3878 18.5156C10.3878 18.6599 10.384 18.7931 10.384 18.8118C10.3822 18.8306 10.2753 18.9543 10.1459 19.0837C10.0165 19.2149 9.8534 19.3949 9.7859 19.4849C9.7184 19.5768 9.66215 19.6499 9.6584 19.6499C9.65653 19.6499 9.6959 19.5431 9.7484 19.4099C9.92465 18.9562 9.95278 18.8718 10.0165 18.6168C10.0522 18.4743 10.099 18.2399 10.1234 18.0956C10.1459 17.9493 10.1722 17.8312 10.1815 17.8312C10.189 17.8312 10.2453 17.8556 10.3072 17.8874C10.444 17.9568 10.5115 17.9587 10.5865 17.8949C10.6409 17.8499 10.6447 17.8499 10.6897 17.8799C10.7534 17.9212 10.8078 17.9043 10.9184 17.8124C10.9784 17.7637 11.0159 17.7449 11.0272 17.7562C11.0928 17.8218 11.2709 17.7318 11.5559 17.4918C11.7922 17.2949 11.7847 17.3212 11.7772 16.6162C11.7753 16.2937 11.7678 16.0237 11.7622 16.0143C11.7565 16.0068 11.7678 15.9318 11.7884 15.8493C11.8184 15.7199 11.8203 15.6881 11.7997 15.6168C11.7659 15.4987 11.7922 14.6606 11.8522 13.8656C11.8803 13.5149 11.9065 13.0256 11.914 12.7781C11.9234 12.3806 11.9178 12.2606 11.8709 11.7468C11.8353 11.3399 11.8184 11.0437 11.8184 10.7624C11.8165 10.3818 11.8222 10.3368 11.8859 9.95619C11.9234 9.73494 11.9984 9.28306 12.0509 8.95306L12.1484 8.35306L12.139 7.72494C12.1297 7.10431 12.0997 6.73869 12.0434 6.50244C11.974 6.20619 11.6234 5.86869 11.2447 5.73369C11.1265 5.69244 11.1022 5.69056 10.5509 5.69056H9.97903L9.6284 5.52181L9.2759 5.35306L9.28715 5.26869C9.29465 5.22181 9.30403 5.17681 9.30965 5.16744C9.32465 5.14306 9.34715 5.20868 9.35278 5.28744C9.35465 5.34556 9.3584 5.34181 9.36965 5.25931C9.37715 5.20681 9.37903 5.11869 9.37528 5.06244L9.3659 4.95931L9.4034 5.01556C9.42403 5.04556 9.46153 5.09244 9.48965 5.11869L9.54028 5.16368L9.49153 5.05869C9.39028 4.83931 9.3959 4.66681 9.50653 4.44181C9.60403 4.24306 9.63965 4.09306 9.74653 3.44994C9.82903 2.95119 9.84028 2.85744 9.82903 2.71869C9.7859 2.15806 9.5534 1.47181 9.19903 0.868061C8.95153 0.448061 8.65528 0.194935 8.2634 0.0711861C8.07965 0.0149364 7.7159 0.0111847 7.4834 0.0636864L7.33153 0.097435L7.2509 0.0561848C7.14403 0.00181007 6.97528 -0.00943947 6.8384 0.0280609ZM4.28653 7.52056L4.3259 7.57494L4.25278 7.71931C4.17215 7.88244 4.12903 7.99869 4.08965 8.16556L4.0634 8.27806L4.07278 8.17119C4.08403 8.03431 4.15903 7.79994 4.23028 7.67806C4.27903 7.59369 4.2809 7.58244 4.25653 7.54306C4.2134 7.47931 4.19465 7.37056 4.20965 7.27494C4.2209 7.19244 4.22278 7.19244 4.23403 7.32931C4.2434 7.42494 4.26028 7.48306 4.28653 7.52056ZM4.11965 8.91556C4.14215 8.98681 4.20215 9.12744 4.25278 9.22681C4.3184 9.35431 4.34465 9.42931 4.34465 9.48181C4.34465 9.58306 4.2959 9.85306 4.26028 9.95431C4.2284 10.0499 4.04653 10.8243 3.99965 11.0681C3.96215 11.2668 3.86465 11.5406 3.67903 11.9624C3.52715 12.3112 3.3359 12.8699 3.31903 13.0181C3.3134 13.0724 3.28903 13.1456 3.26465 13.1831C3.20465 13.2787 3.03215 13.6256 3.00215 13.7118C2.96278 13.8206 2.96278 14.4093 3.00215 14.5781C3.0359 14.7318 3.03965 14.7749 3.0134 14.7749C2.94965 14.7749 2.91028 14.4243 2.93653 14.1093C2.95715 13.8806 2.95528 13.8768 2.9084 13.7681C2.86528 13.6743 2.86153 13.6424 2.8709 13.5374C2.8859 13.3706 2.95903 13.1062 3.03778 12.9374C3.11465 12.7668 3.28715 12.4874 3.47278 12.2343C3.54778 12.1312 3.62465 12.0131 3.64528 11.9718C3.72403 11.8181 3.90965 11.3287 3.93965 11.2031C3.95653 11.1299 4.01653 10.8599 4.07278 10.6031C4.1309 10.3443 4.1984 10.0706 4.22278 9.99369C4.2809 9.81556 4.30715 9.66181 4.30715 9.51181C4.30715 9.41056 4.2959 9.37119 4.23215 9.24369C4.08965 8.96244 4.05778 8.83681 4.05215 8.54056L4.0484 8.27806L4.0634 8.53119C4.07278 8.70931 4.08965 8.82369 4.11965 8.91556ZM10.3803 9.11619C10.4122 9.29806 10.444 10.0499 10.4328 10.3312C10.4272 10.4699 10.3915 10.8243 10.354 11.1168C10.3053 11.4899 10.2884 11.6906 10.2959 11.7824C10.3015 11.8556 10.3128 12.1181 10.324 12.3656C10.3428 12.8268 10.3484 12.8737 10.4759 13.5374C10.7703 15.0618 10.7722 15.5568 10.4872 16.0968C10.4234 16.2187 10.2359 16.4249 10.1872 16.4249C10.1703 16.4249 10.1572 16.4231 10.1572 16.4193C10.1572 16.4156 10.1497 16.3668 10.1384 16.3106C10.129 16.2543 10.1122 16.0143 10.1009 15.7781C10.0709 15.1124 10.0447 14.7581 10.0147 14.6249C9.96778 14.4224 9.89653 14.2349 9.6659 13.7268C9.49903 13.3593 9.4859 13.3199 9.45215 13.1156C9.39965 12.7968 9.25715 12.3806 9.12965 12.1799C9.09028 12.1162 9.08465 12.0918 9.0959 12.0018C9.14653 11.5237 9.6584 10.1174 9.85528 9.90931C9.99778 9.75931 10.144 9.49306 10.2697 9.15556C10.3053 9.06181 10.339 8.98681 10.3465 8.99244C10.354 8.99619 10.369 9.05244 10.3803 9.11619ZM6.22528 17.0531C6.32278 17.0943 6.51215 17.1093 6.6059 17.0831C6.64903 17.0718 6.70528 17.0399 6.7334 17.0137C6.75965 16.9856 6.78215 16.9743 6.78215 16.9856C6.78215 17.0399 6.62653 17.4749 6.5759 17.5593C6.43715 17.7937 6.39215 17.9587 6.34903 18.3843C6.31903 18.6862 6.3209 19.3987 6.3509 19.6837C6.37903 19.9574 6.36778 20.5799 6.32465 20.9062C6.30965 21.0243 6.2909 21.3543 6.28153 21.6374L6.26653 22.1531L6.25528 21.7406C6.24778 21.4368 6.23653 21.2981 6.21403 21.2156C6.10903 20.8499 6.08653 20.0268 6.15965 19.3124C6.21403 18.7762 6.22715 18.3881 6.20278 17.9718C6.18215 17.6418 6.12965 17.1881 6.09028 17.0193L6.0734 16.9462L6.11278 16.9856C6.13528 17.0062 6.1859 17.0362 6.22528 17.0531Z" fill="#7E1D32"/>
</g>
<defs>
<clipPath id="clip0_5_79">
<rect width="12" height="24" fill="white" transform="translate(0.857147)"/>
</clipPath>
</defs>
</svg>
