<svg width="31" height="24" viewBox="0 0 31 24" fill="none" xmlns="http://www.w3.org/2000/svg">
<path d="M8.77637 0.0158558C8.76977 0.0254898 8.60488 0.0383377 8.41361 0.0479717C7.93542 0.0672436 7.75734 0.134689 7.44405 0.423746C7.24288 0.610027 7.17033 0.706381 7.02193 0.989014C6.923 1.17851 6.79768 1.39048 6.74162 1.45793C6.68555 1.52538 6.63938 1.59925 6.63938 1.61852C6.63938 1.63779 6.66906 1.60567 6.70864 1.54465C6.79108 1.40975 6.82736 1.43545 6.75481 1.57355C6.72513 1.63136 6.66906 1.75983 6.63279 1.8594C6.52726 2.15809 6.52726 2.16451 6.57013 2.13561C6.59321 2.12276 6.56683 2.19663 6.51077 2.29941C6.45471 2.4054 6.40854 2.50496 6.40854 2.52423C6.40854 2.54671 6.34258 2.64949 6.26014 2.75869C6.17769 2.86789 6.11173 2.96424 6.11173 2.97387C6.11173 2.98672 6.14471 3.02205 6.18429 3.05417C6.24365 3.10555 6.24694 3.12804 6.21726 3.19548C6.1678 3.29826 6.23046 3.34001 6.30631 3.2533C6.33599 3.22118 6.39864 3.16658 6.45141 3.13767C6.53715 3.08307 6.54045 3.08307 6.54045 3.14731C6.54045 3.18585 6.4679 3.29184 6.37886 3.38177C6.23046 3.53914 6.22056 3.55841 6.23046 3.69652C6.23705 3.81214 6.22716 3.86032 6.17439 3.90207C6.11173 3.95988 6.08865 4.0209 6.13812 4.00484C6.18758 3.98879 6.19088 4.03375 6.14801 4.16543C6.10514 4.2939 6.10514 4.30033 6.19088 4.37741C6.23705 4.41916 6.27663 4.47376 6.27663 4.49624C6.27663 4.51872 6.29971 4.52836 6.33269 4.51551C6.39535 4.49303 6.54045 4.60865 6.54045 4.68252C6.54045 4.74034 6.63609 4.81421 6.71523 4.81742C6.74491 4.81742 6.79108 4.85275 6.81087 4.89771C6.85374 4.99085 7.0747 5.13217 7.09448 5.07757C7.12086 4.99727 7.19671 5.05509 7.34182 5.26706C7.47043 5.45655 7.49682 5.52721 7.5265 5.73277C7.60564 6.28518 7.55947 6.4811 7.32863 6.54855C7.25278 6.57103 7.0681 6.65132 6.923 6.7284C6.63609 6.87936 6.33928 6.97571 6.0062 7.03352C5.89408 7.05279 5.69621 7.10739 5.5676 7.15236C5.37632 7.22301 5.29717 7.27761 5.1059 7.4639C4.85197 7.7112 4.71346 7.94245 4.58155 8.32464C4.509 8.53341 4.49581 8.62655 4.49581 8.95093C4.49581 9.35561 4.51559 9.41021 4.64751 9.41021C4.73655 9.41021 4.75963 9.46481 4.75963 9.68321C4.75963 9.90482 4.8091 10.3962 4.89484 11.0289C4.97399 11.5846 4.97399 11.4882 4.87835 13.6497C4.83878 14.5394 4.8124 14.8573 4.75963 15.095C4.47272 16.3797 4.41336 16.8518 4.36389 18.1943C4.34741 18.7403 4.30783 19.3923 4.28145 19.6396C4.25507 19.8869 4.23198 20.1535 4.23198 20.2274V20.3687L4.07698 20.3526C3.98794 20.3462 3.70433 20.2948 3.44051 20.237C2.88977 20.1246 2.83371 20.1182 2.66552 20.1888C2.47095 20.2659 1.86415 20.6096 1.68607 20.7413C1.59703 20.8055 1.45193 20.9147 1.35959 20.9821C1.27055 21.0496 1.05619 21.162 0.884703 21.2359C0.713217 21.3065 0.571411 21.3772 0.571411 21.3932C0.571411 21.4671 0.709919 21.5506 0.831938 21.5506C0.90449 21.5506 0.973744 21.5635 0.983638 21.5827C1.01991 21.6405 1.17161 21.6181 1.31342 21.5346C1.46842 21.4478 1.85096 21.3579 1.97628 21.3836C2.03564 21.3932 2.05543 21.4189 2.05543 21.4864C2.05543 21.6373 2.16096 21.6951 2.43138 21.6919C2.61605 21.6919 2.71169 21.6727 2.87988 21.5988C3.07445 21.5153 3.12392 21.5089 3.42402 21.5121C3.6054 21.5153 3.82965 21.5024 3.91869 21.4832C4.23198 21.4157 4.77612 21.2262 4.85197 21.1556C4.96739 21.0528 5.04324 20.889 5.12239 20.5839C5.23781 20.1342 5.31696 19.8998 5.63685 19.0422C6.14471 17.6676 6.34258 17.0285 6.50747 16.2031C6.56353 15.9236 6.58332 15.6539 6.60641 14.9023C6.6229 14.382 6.65258 13.8103 6.67236 13.6337C6.69545 13.457 6.72183 13.0748 6.73172 12.7825L6.75481 12.2526L6.82076 12.4293C6.85374 12.5256 6.88342 12.6284 6.88342 12.6541C6.88672 12.683 6.92629 12.7055 6.97906 12.7119C7.0615 12.7215 7.08789 12.7536 7.17033 12.9303C7.2231 13.0459 7.29895 13.2226 7.33852 13.3221C7.5232 13.8071 8.04755 14.7385 8.47956 15.3455C8.7203 15.6828 8.91158 15.975 8.90168 15.9911C8.88849 16.0071 8.79945 16.065 8.70052 16.1196C8.51914 16.2191 8.32786 16.4247 8.16957 16.6912C8.08712 16.8229 8.08383 16.8486 8.10361 17.128C8.13329 17.5327 8.2718 17.8089 8.61807 18.1494C8.82583 18.3517 8.92477 18.4224 9.21168 18.5605C9.41614 18.6568 9.64369 18.7403 9.76901 18.7628C9.94709 18.7949 9.98666 18.8174 10.0394 18.9009C10.1549 19.084 10.1285 19.1547 9.81518 19.4758C9.35678 19.9447 9.1754 20.3783 9.25455 20.828C9.26774 20.9147 9.35019 21.1235 9.42933 21.2905C9.55135 21.5313 9.6305 21.6405 9.82177 21.8268C10.0295 22.0292 10.1186 22.087 10.4747 22.254C10.9859 22.4949 11.1409 22.5366 11.784 22.5976C12.0643 22.6233 12.582 22.694 12.9349 22.7582C13.921 22.9317 14.2178 22.9606 15.4412 23.012C16.4306 23.0505 16.701 23.0505 17.5189 23.012C18.0366 22.9863 18.7226 22.9349 19.0392 22.8963C19.3557 22.861 19.8471 22.8064 20.1274 22.7743C20.51 22.7293 20.7309 22.7197 21.0047 22.739C21.3311 22.7582 21.3971 22.7743 21.6741 22.8963C21.8456 22.9702 22.0632 23.0473 22.1622 23.0634C22.2578 23.0826 22.3996 23.118 22.4722 23.1404C22.5447 23.1661 22.7492 23.1982 22.924 23.2079C23.3395 23.2336 24.4476 23.4937 25.0214 23.6993C25.7535 23.9626 25.8228 23.9755 26.6406 23.9883C28.0422 24.0076 27.9399 24.014 28.1345 23.9177C28.3522 23.8053 28.4247 23.68 28.3918 23.4648C28.3654 23.3074 28.2499 23.1404 28.1378 23.1083C28.0818 23.089 28.0851 23.0794 28.1906 23.0088L28.306 22.9317L28.5632 23.0152C28.8403 23.1083 29.1931 23.1308 29.3184 23.0666C29.358 23.0441 29.3943 22.9959 29.4009 22.9574C29.4075 22.8996 29.4405 22.8803 29.5394 22.8642C29.6647 22.845 29.757 22.7679 29.757 22.6844C29.757 22.6555 29.8065 22.6426 29.9054 22.6426C30.1132 22.6426 30.2352 22.5302 30.2055 22.3664C30.1858 22.27 30.1924 22.2572 30.2517 22.2572C30.4133 22.2572 30.5122 22.0003 30.4067 21.8589C30.3671 21.8076 30.3737 21.7883 30.4529 21.7112C30.5914 21.5795 30.6079 21.4221 30.5056 21.2519C30.4364 21.1395 30.3671 21.0849 30.1825 20.9886C29.9615 20.8762 29.9153 20.8633 29.5625 20.8408C29.3019 20.8248 29.0909 20.7894 28.8996 20.7316C28.4973 20.6096 28.1213 20.5967 27.4651 20.6802C27.1749 20.7188 26.6934 20.7573 26.3933 20.767C25.9052 20.7862 25.8195 20.7798 25.5523 20.7188C24.995 20.5871 24.2728 20.5967 23.8045 20.7445C23.4549 20.8569 22.8119 20.9147 22.3073 20.8762C20.9684 20.7798 20.5067 20.6321 19.1315 19.8452C18.8182 19.6653 18.3631 19.3859 18.1191 19.2253C17.875 19.0647 17.6607 18.9234 17.6442 18.9106C17.6244 18.8977 17.6574 18.7821 17.7266 18.6215C18.0762 17.825 18.0399 17.0767 17.6145 16.126C17.3507 15.5414 17.1429 15.2973 16.5757 14.9023C16.0711 14.549 15.6721 14.3563 15.4478 14.3563C15.372 14.3563 15.2566 14.321 15.1444 14.26C15.0455 14.2086 14.874 14.1347 14.7619 14.0962C14.6465 14.0608 14.5541 14.0255 14.5541 14.0191C14.5541 14.0159 14.6498 13.9131 14.7685 13.7942C14.9664 13.5919 15.3126 13.1294 15.5105 12.805C15.583 12.6894 15.5929 12.6348 15.5896 12.3971C15.5863 12.0567 15.5171 11.8576 15.2533 11.44C15.1444 11.2698 14.9598 10.9326 14.841 10.6949C14.7223 10.4572 14.5113 10.0718 14.3695 9.8438C13.9407 9.14043 13.7297 8.68436 13.2647 7.47032C13.1789 7.24871 13.1723 7.20696 13.2086 7.11382C13.2449 7.01425 13.235 6.98535 13.0998 6.72198C12.5293 5.61714 11.7774 5.3602 10.6693 5.89656C10.4648 5.99613 10.2406 6.08285 10.1713 6.09248L10.046 6.10854L10.0262 5.95759C9.99326 5.73919 9.99656 5.3313 10.0328 5.3313C10.046 5.3313 10.0988 5.36662 10.1483 5.41159C10.2274 5.48225 10.2538 5.48867 10.3527 5.46298C10.4154 5.44692 10.4648 5.44371 10.4648 5.45334C10.4648 5.49509 10.6825 5.62035 10.7518 5.62035C10.788 5.62035 10.8441 5.59145 10.8804 5.55291C10.9265 5.50152 10.9694 5.48867 11.0486 5.50152C11.1508 5.51758 11.1871 5.49509 11.2893 5.33451C11.3124 5.29597 11.3322 5.29276 11.4014 5.32487C11.4806 5.3602 11.4872 5.35699 11.4872 5.28312C11.4872 5.20283 11.5432 5.17713 11.8466 5.11932L11.9555 5.09684L11.9423 4.86238C11.9357 4.7307 11.9423 4.62471 11.9588 4.62471C11.9752 4.62471 11.9752 4.59581 11.9654 4.56048C11.9522 4.52515 11.9588 4.49624 11.9785 4.49624C12.0577 4.49624 11.7477 4.05302 11.5234 3.84105C11.4311 3.75433 11.3553 3.67082 11.3553 3.65155C11.3553 3.63228 11.3948 3.65476 11.4476 3.69973C11.5696 3.81214 11.6554 3.84747 11.7444 3.82499L11.8202 3.80572L11.7213 3.71258C11.6059 3.60338 11.5861 3.54556 11.685 3.59695C11.7378 3.62586 11.7477 3.62265 11.7279 3.57768C11.7114 3.53272 11.7246 3.52951 11.8104 3.54878C11.9588 3.57768 11.9489 3.49739 11.7906 3.31111C11.4839 2.95139 11.2266 2.45357 11.0947 1.95896C10.9101 1.27486 10.7452 0.90872 10.4846 0.619663C10.3494 0.468712 9.86464 0.218195 9.6371 0.179653C9.57114 0.166807 9.4854 0.131477 9.44582 0.0993595C9.38646 0.0479717 9.35348 0.0415497 9.27434 0.0704536C9.16881 0.105783 8.89509 0.0800896 8.86541 0.0287018C8.84232 -0.00341606 8.80275 -0.00984001 8.77637 0.0158558ZM13.5912 12.4678C13.5648 12.5096 13.5153 12.5931 13.4823 12.6541C13.4296 12.7536 13.4197 12.7601 13.3966 12.7023C13.3438 12.5641 13.3636 12.4967 13.4757 12.4485C13.6241 12.3843 13.6439 12.3875 13.5912 12.4678ZM29.5757 21.6438C29.6581 21.6823 29.6845 21.708 29.6449 21.708C29.5559 21.7112 29.3283 21.6405 29.3283 21.6084C29.3283 21.5667 29.4339 21.5795 29.5757 21.6438ZM27.4618 23.0923C27.343 23.1372 27.1749 23.1436 27.1617 23.0987C27.1518 23.0698 27.1979 23.0601 27.3397 23.0634C27.4783 23.0634 27.5112 23.073 27.4618 23.0923Z" fill="#7E1D32"/>
</svg>
