<svg width="233" height="41" viewBox="0 0 233 41" fill="none" xmlns="http://www.w3.org/2000/svg">
<path d="M9.16924 1.38021C8.67091 1.44551 8.43115 1.51082 8.25721 1.62276C8.18199 1.6694 8.16319 1.70206 8.2055 1.72538C8.28071 1.77668 8.2243 1.85131 8.04566 1.93994C7.80119 2.06121 7.40159 2.34107 7.39689 2.39704C7.39219 2.42503 7.39219 2.47634 7.39689 2.50432C7.40159 2.53697 7.38279 2.56496 7.35458 2.56496C7.32637 2.56496 7.31227 2.58361 7.32637 2.60694C7.34048 2.6256 7.23235 2.77019 7.09131 2.91945C6.94558 3.06871 6.79044 3.27394 6.73873 3.36723C6.64 3.55846 6.61649 3.96893 6.69641 4.17882C6.72462 4.24879 6.76693 4.46334 6.79514 4.65925C6.82335 4.85515 6.86096 5.03239 6.88446 5.06038C6.96438 5.16766 6.96908 5.39155 6.88446 5.55014C6.79044 5.73671 6.76693 5.86265 6.69641 6.45969C6.64 6.97276 6.74343 7.67708 6.88916 7.71906C6.96438 7.74238 6.96908 7.79369 6.95028 8.15284C6.93147 8.48401 6.94558 8.61928 7.0255 8.88514C7.08191 9.06239 7.14773 9.4402 7.17123 9.72473C7.19004 10.0046 7.26056 10.4803 7.32637 10.7742C7.48151 11.5018 7.57084 12.2108 7.50502 12.2761C7.48151 12.2994 7.32637 12.4021 7.16653 12.5C6.77634 12.7379 6.16048 13.2976 6.01474 13.5448C5.74678 14.0019 5.59634 15.154 5.70446 15.919C5.8408 16.8705 5.8596 18.8668 5.76558 22.3651C5.72327 23.9603 5.69506 24.4314 5.61514 24.9072C5.23435 27.1647 5.17323 27.6824 5.07451 29.4549C5.03219 30.1452 4.98518 30.9382 4.96638 31.2087L4.92877 31.7078L4.6373 32.0623C4.48216 32.2582 4.32702 32.496 4.30351 32.594C4.21419 32.9112 4.19068 33.4662 4.2518 33.7881L4.30821 34.1006L4.03554 34.4551C3.8804 34.6556 3.60774 34.9681 3.41969 35.1501C3.23634 35.3366 3.0624 35.5279 3.03419 35.5792C2.99658 35.6491 2.92606 35.6725 2.70511 35.6911C2.49826 35.7051 2.32431 35.7564 2.07985 35.8824C1.8918 35.9756 1.71316 36.0549 1.68495 36.0549C1.65204 36.0549 1.45459 36.1062 1.23834 36.1669C1.02208 36.2229 0.716506 36.3022 0.561366 36.3301C0.406227 36.3628 0.208778 36.4188 0.128857 36.4561C-0.0121782 36.512 -0.0215806 36.5307 0.0254313 36.6333C0.0818455 36.7499 0.246387 36.8479 0.392124 36.8479C0.439136 36.8479 0.504952 36.8759 0.533159 36.9132C0.627183 37.0205 0.815231 37.0391 1.29005 36.9878C1.53451 36.9598 1.8965 36.9178 2.08925 36.8992C2.31961 36.8759 2.52646 36.8199 2.691 36.7359C2.87905 36.6426 2.95897 36.624 3.02949 36.6613C3.25045 36.7779 3.68295 36.6613 3.89451 36.4328C3.94622 36.3768 4.00264 36.3348 4.02614 36.3348C4.04965 36.3348 4.12957 36.2882 4.20479 36.2368C4.31291 36.1576 4.37403 36.1436 4.51977 36.1715C4.61849 36.1902 4.72662 36.2229 4.75953 36.2508C4.83474 36.3161 4.83004 36.5913 4.74542 36.8246C4.6514 37.0764 4.6561 37.1837 4.76893 37.305C4.90526 37.4496 5.0604 37.4729 5.23905 37.3843C5.42239 37.291 5.52112 37.0718 5.52112 36.7453C5.52582 36.61 5.56813 36.3814 5.61984 36.2415C5.67156 36.1016 5.72327 35.8077 5.74207 35.5932L5.77028 35.206L5.93952 35.234C6.31562 35.2947 7.0255 35.3133 7.37809 35.2713C7.58494 35.2433 7.93283 35.2014 8.15378 35.1734C8.37474 35.1454 8.71322 35.1034 8.90597 35.0754C9.09872 35.0521 9.57824 34.9961 9.96374 34.9588C10.3539 34.9168 10.8476 34.8469 11.0685 34.7956C11.2895 34.7489 11.6045 34.693 11.7737 34.679C11.9429 34.6603 12.4507 34.5857 12.902 34.5157C14.2183 34.3011 14.6508 34.2732 16.0612 34.2918C17.0343 34.3011 17.3775 34.3198 17.4245 34.3664C17.5091 34.4504 17.5326 35.3413 17.4621 35.6865C17.401 35.9617 17.3258 36.1296 16.757 37.1977C16.2633 38.1259 15.8778 38.583 15.5393 38.6483C15.262 38.7043 15.2197 38.9328 15.4547 39.1054C15.5582 39.1801 15.6522 39.1987 15.8543 39.1987C16.2915 39.1847 16.4984 39.0588 16.8181 38.6017C16.9121 38.4664 17.2365 38.2938 17.401 38.2938C17.4574 38.2938 17.5938 38.2612 17.6972 38.2192C17.9605 38.1119 18.1814 38.1632 18.313 38.3545C18.5998 38.7696 18.849 38.9468 19.1452 38.9468C19.2815 38.9468 19.399 38.9935 19.5777 39.1101C19.714 39.1987 19.8785 39.2827 19.9491 39.2967C20.0149 39.3107 20.1653 39.3526 20.2828 39.3899C20.7013 39.5205 21.2231 39.6465 21.3453 39.6465C21.4205 39.6465 21.5193 39.5952 21.5992 39.5066C21.759 39.3386 21.8483 39.334 22.2103 39.4832C22.53 39.6185 22.7087 39.6278 22.8544 39.5299C22.9625 39.4552 23.0236 39.2873 22.9531 39.2454C22.8826 39.1987 22.8074 38.9795 22.8168 38.8442C22.8262 38.7416 22.8027 38.7183 22.671 38.6903C22.5864 38.6716 22.342 38.5737 22.1257 38.4757C21.9095 38.3731 21.7214 38.2938 21.7073 38.2938C21.6932 38.2938 21.5287 38.1819 21.3453 38.042C21.162 37.9067 20.9175 37.7341 20.8047 37.6595C20.6542 37.5615 20.5508 37.4309 20.4051 37.1651C19.4601 35.4206 19.5542 35.6491 19.5071 34.9542L19.4789 34.525L20.0102 34.4924C20.3016 34.4737 20.7013 34.4551 20.894 34.4457C21.0867 34.4411 21.4722 34.3991 21.7496 34.3571C22.027 34.3105 22.3655 34.2825 22.5018 34.2918L22.751 34.3058L22.8262 34.539C22.8732 34.665 23.0048 35.0754 23.1271 35.4486C23.2587 35.8497 23.4608 36.3488 23.6348 36.6846C23.8887 37.1697 23.9827 37.2957 24.3729 37.6921C24.843 38.1632 25.4259 38.583 25.755 38.6763C26.0606 38.7649 26.8269 38.7416 27.3252 38.625C27.565 38.569 27.7953 38.5084 27.8424 38.4851C27.8847 38.4617 28.0163 38.4058 28.1338 38.3591C28.4676 38.2239 28.7732 38.028 29.3279 37.6035C29.8027 37.235 30.1459 37.0345 30.8323 36.7359C31.467 36.4561 33.0184 36.3022 34.2454 36.4001C34.6497 36.4281 34.7954 36.4234 35.0446 36.3581C35.2138 36.3115 35.4301 36.2788 35.5241 36.2835C35.7309 36.2928 36.1446 36.1016 36.2199 35.9663C36.328 35.7658 36.7041 35.7378 37.146 35.901C37.3199 35.9663 37.3623 35.9617 37.5973 35.8964C37.7383 35.8544 37.9781 35.8217 38.1332 35.8217C38.4482 35.8217 39.0171 35.6865 39.2333 35.5605C39.6188 35.332 39.6799 34.9402 39.4167 34.3291C39.0829 33.5642 38.7397 33.2004 38.0721 32.9065L37.6537 32.7246L36.6665 32.6873C35.7074 32.6546 35.1574 32.58 35.148 32.4867C35.1433 32.4587 35.1856 32.4261 35.2467 32.4121C35.4583 32.3515 35.8673 32.1509 35.9331 32.0716C35.9848 32.011 35.9895 31.969 35.9519 31.913C35.8767 31.7917 35.7356 31.7917 35.3878 31.9177C35.2138 31.983 34.88 32.0809 34.6544 32.1369C34.2501 32.2348 34.2266 32.2348 33.9116 32.1602C33.4838 32.0529 32.9384 32.0809 32.6423 32.2209C32.3743 32.3421 32.1204 32.6173 32.0123 32.9018C31.9465 33.0698 31.9324 33.2004 31.9559 33.4896C31.97 33.6948 31.9653 33.8627 31.9465 33.8627C31.7913 33.8627 31.0063 33.5968 30.5079 33.3729C30.1506 33.2144 29.8216 33.1537 29.2339 33.1304C28.5287 33.1024 28.1009 33.1584 27.7436 33.3263C27.612 33.3916 27.4945 33.4429 27.4757 33.4429C27.4616 33.4429 27.4475 33.163 27.4475 32.8226C27.4475 32.1509 27.3628 30.8355 27.2782 30.1266C27.2359 29.7861 27.2359 29.5435 27.2782 29.1004C27.3769 28.1116 27.3487 27.4865 27.1654 26.3998C26.935 25.0378 26.6247 24.1702 26.1264 23.5079C25.7033 22.9435 24.9605 22.0852 24.6973 21.852C24.2083 21.4229 23.6677 21.143 22.9296 20.9331C22.436 20.7932 21.5287 20.7932 20.941 20.9331C20.6213 21.0078 20.4991 21.0171 20.3299 20.9798C20.2123 20.9565 19.7375 20.9285 19.2674 20.9238C18.2613 20.9052 18.2472 20.9005 17.7066 20.4014C17.2929 20.0236 17.2694 19.9723 17.0954 19.2167C16.9967 18.7922 16.9215 18.3398 16.8745 17.8873C16.8557 17.7334 16.8134 17.4909 16.7805 17.3509C16.7428 17.211 16.6911 16.9358 16.6629 16.7446C16.5501 16.0123 16.4279 15.4992 16.2868 15.1913C16.2116 15.0188 16.1082 14.7762 16.0706 14.6549C15.8026 13.8713 15.2526 13.0924 14.4064 12.2994C13.988 11.9076 13.8469 11.8097 13.4003 11.5951C13.1135 11.4552 12.6998 11.2873 12.4789 11.2266C11.7361 11.0074 11.5762 10.9141 11.4023 10.5643L11.2942 10.3451L11.5245 10.1072C11.6562 9.97194 11.8066 9.79469 11.863 9.71073C11.9194 9.63144 11.9947 9.56147 12.0276 9.56147C12.0652 9.56147 12.1404 9.48684 12.2015 9.40289C12.2626 9.31426 12.3566 9.22098 12.4084 9.19765C12.4601 9.16967 12.6199 9.04373 12.7656 8.91779C13.0759 8.63793 13.3862 8.07355 13.4849 7.60245C13.579 7.164 13.7341 6.80018 13.8845 6.68357C14.035 6.56696 14.2418 6.16583 14.2935 5.89996C14.3076 5.80668 14.3593 5.69473 14.4064 5.65275C14.5991 5.46618 14.6367 5.00908 14.4863 4.57063C14.4346 4.40738 14.082 4.0249 13.7294 3.74037C13.5507 3.60044 13.546 3.58645 13.6072 3.47451C13.7623 3.18532 13.4426 2.60227 12.8879 2.1545C12.2579 1.65075 11.9664 1.51082 11.2566 1.37555C10.8194 1.29159 9.8086 1.29159 9.16924 1.38021ZM9.77099 23.5219C9.83681 23.6058 9.97314 23.7364 10.0813 23.811C10.1894 23.8903 10.4198 24.0676 10.5984 24.2122C10.9886 24.5293 11.2378 24.6553 11.7173 24.7719C11.9382 24.8279 12.225 24.9491 12.4554 25.0797C12.6622 25.201 12.8879 25.3316 12.9584 25.3689C13.0947 25.4436 13.1276 25.5135 13.0383 25.5135C12.9537 25.5135 12.0652 26.0359 11.2472 26.5677C9.26326 27.855 8.84956 28.1442 8.10677 28.7692C7.86231 28.9745 7.65546 29.1377 7.65076 29.1331C7.64135 29.1284 7.70247 28.9372 7.78239 28.7039C7.99864 28.0696 8.32303 26.7962 8.38414 26.3531C8.41235 26.1339 8.45466 25.5368 8.48287 25.0238C8.54868 23.7691 8.54398 23.7831 8.84956 23.7178C8.98589 23.6851 9.19275 23.5965 9.31968 23.5172C9.44191 23.4379 9.56414 23.3726 9.59705 23.3726C9.62996 23.3679 9.70517 23.4379 9.77099 23.5219ZM20.847 28.9838C20.847 29.1331 21.571 30.4904 21.8812 30.9242C21.9283 30.9895 21.9847 31.1247 22.0035 31.2227C22.0317 31.3906 22.027 31.4046 21.9471 31.3719C21.9001 31.3486 21.7637 31.302 21.6462 31.2647C21.5287 31.2273 21.397 31.176 21.35 31.1527C21.2043 31.0781 20.5132 31.2227 20.1935 31.3999C20.0196 31.4979 19.7657 31.6938 19.4883 31.9503C19.4037 32.0296 19.3191 32.0856 19.3097 32.0716C19.2956 32.0576 19.2674 31.7078 19.2439 31.288C19.2204 30.8682 19.1828 30.3365 19.1593 30.1079C19.1264 29.8001 19.1311 29.6741 19.1687 29.6321C19.2016 29.6042 19.4789 29.4782 19.7892 29.3569C20.0995 29.2357 20.438 29.0864 20.5414 29.0304C20.7624 28.9092 20.847 28.8952 20.847 28.9838ZM16.6159 30.7562C16.6159 30.7656 16.7005 31.0734 16.8087 31.4372C16.9121 31.8011 16.9873 32.1089 16.9779 32.1182C16.9356 32.1602 15.5629 31.8617 15.0175 31.6938C14.7213 31.6052 14.4346 31.5305 14.3876 31.5305C14.3264 31.5305 14.3123 31.5165 14.3405 31.4885C14.3876 31.4419 15.135 31.162 15.5111 31.0454C15.6428 31.0081 15.906 30.9242 16.0988 30.8635C16.442 30.7562 16.6159 30.7189 16.6159 30.7562Z" fill="#7E1D32"/>
<rect x="49.5769" width="0.69736" height="40.9594" fill="#F0F0F0"/>
<path d="M65.9806 5.24781C68.2939 5.24781 69.8207 6.59946 69.8207 8.85735C69.8207 11.1152 68.2939 12.5283 65.9806 12.5283H63.6518V15.9996H61.4464V5.24781H65.9806ZM65.888 10.4394C67.0293 10.4394 67.5845 9.82501 67.5845 8.88807C67.5845 7.93576 67.0293 7.33673 65.888 7.33673H63.6518V10.4394H65.888ZM76.1926 7.36745C76.393 7.36745 76.5473 7.38281 76.6861 7.39817V9.65606C76.5164 9.6407 76.393 9.62534 76.1463 9.62534C74.7429 9.62534 73.5399 10.2397 73.5399 12.2365V15.9996H71.3345V7.55177H73.5399V9.02631C74.0643 7.9204 74.9896 7.36745 76.1926 7.36745ZM81.9456 7.36745C84.3978 7.36745 86.3718 9.22598 86.3718 11.7757C86.3718 14.3254 84.4286 16.184 81.9456 16.184C79.4781 16.184 77.5349 14.3101 77.5349 11.7757C77.5349 9.22598 79.5089 7.36745 81.9456 7.36745ZM81.9456 9.45638C80.7119 9.45638 79.7557 10.3933 79.7557 11.7757C79.7557 13.1734 80.7119 14.095 81.9456 14.095C83.1794 14.095 84.1356 13.1734 84.1356 11.7757C84.1356 10.3933 83.1794 9.45638 81.9456 9.45638ZM91.8337 16.184C89.5666 16.184 87.9164 15.078 87.608 13.2195H89.8442C90.0139 13.8953 90.5228 14.3561 91.8954 14.3561C92.867 14.3561 93.3297 14.1257 93.3297 13.665C93.3297 13.0966 92.6665 13.0506 91.3865 12.7434C88.9806 12.1751 87.9936 11.6375 87.9936 10.1783C87.9936 8.39656 89.4741 7.36745 91.7103 7.36745C94.0699 7.36745 95.2266 8.50407 95.5196 10.0708H93.2834C93.1137 9.53318 92.6511 9.21062 91.6332 9.21062C90.7541 9.21062 90.2144 9.45638 90.2144 9.91717C90.2144 10.3165 90.5999 10.3933 91.8337 10.6698C94.255 11.2228 95.6122 11.6835 95.6122 13.3731C95.6122 15.2624 93.9311 16.184 91.8337 16.184ZM103.351 13.7264L103.721 15.5081C103.259 15.8153 102.21 16.184 101.192 16.184C99.4955 16.184 98.0149 15.1702 98.0149 12.7434V9.62534H96.5036V7.55177H98.0149V5.72396L100.22 5.24781V7.55177H103.366V9.62534H100.22V12.6205C100.22 13.6189 100.698 14.1411 101.577 14.1411C102.071 14.1411 102.657 13.9721 103.351 13.7264ZM106.272 3.65039C107.073 3.65039 107.644 4.18798 107.644 4.94061C107.644 5.69324 107.073 6.24619 106.272 6.24619C105.5 6.24619 104.899 5.69324 104.899 4.94061C104.899 4.18798 105.5 3.65039 106.272 3.65039ZM105.161 15.9996V7.55177H107.367V15.9996H105.161ZM115.445 13.7264L115.815 15.5081C115.352 15.8153 114.304 16.184 113.286 16.184C111.589 16.184 110.109 15.1702 110.109 12.7434V9.62534H108.597V7.55177H110.109V5.72396L112.314 5.24781V7.55177H115.46V9.62534H112.314V12.6205C112.314 13.6189 112.792 14.1411 113.671 14.1411C114.165 14.1411 114.751 13.9721 115.445 13.7264ZM122.822 7.55177H125.028V15.9996H122.822V14.8323C122.206 15.6924 121.373 16.184 120.201 16.184C118.335 16.184 117.178 14.9091 117.178 12.8509V7.55177H119.383V12.3747C119.383 13.4806 119.8 14.095 120.941 14.095C122.159 14.095 122.822 13.3731 122.822 11.9907V7.55177ZM133.081 13.7264L133.451 15.5081C132.988 15.8153 131.94 16.184 130.922 16.184C129.225 16.184 127.745 15.1702 127.745 12.7434V9.62534H126.233V7.55177H127.745V5.72396L129.95 5.24781V7.55177H133.096V9.62534H129.95V12.6205C129.95 13.6189 130.428 14.1411 131.307 14.1411C131.801 14.1411 132.387 13.9721 133.081 13.7264ZM143.466 15.9996H140.644L137.174 12.3133V15.9996H134.968V4.17262H137.174V11.0692L140.397 7.55177H143.204L139.333 11.576L143.466 15.9996ZM145.776 3.65039C146.578 3.65039 147.149 4.18798 147.149 4.94061C147.149 5.69324 146.578 6.24619 145.776 6.24619C145.005 6.24619 144.403 5.69324 144.403 4.94061C144.403 4.18798 145.005 3.65039 145.776 3.65039ZM144.666 15.9996V7.55177H146.871V15.9996H144.666ZM156.923 5.24781H159.468V15.9996H157.262V8.28904L154.255 12.8202H154.055L151.063 8.28904V15.9996H148.857V5.24781H151.387L154.163 9.37958L156.923 5.24781ZM165.714 7.36745C168.166 7.36745 170.14 9.22598 170.14 11.7757C170.14 14.3254 168.197 16.184 165.714 16.184C163.246 16.184 161.303 14.3101 161.303 11.7757C161.303 9.22598 163.277 7.36745 165.714 7.36745ZM165.714 9.45638C164.48 9.45638 163.524 10.3933 163.524 11.7757C163.524 13.1734 164.48 14.095 165.714 14.095C166.948 14.095 167.904 13.1734 167.904 11.7757C167.904 10.3933 166.948 9.45638 165.714 9.45638ZM175.602 16.184C173.335 16.184 171.685 15.078 171.376 13.2195H173.613C173.782 13.8953 174.291 14.3561 175.664 14.3561C176.635 14.3561 177.098 14.1257 177.098 13.665C177.098 13.0966 176.435 13.0506 175.155 12.7434C172.749 12.1751 171.762 11.6375 171.762 10.1783C171.762 8.39656 173.243 7.36745 175.479 7.36745C177.838 7.36745 178.995 8.50407 179.288 10.0708H177.052C176.882 9.53318 176.42 9.21062 175.402 9.21062C174.523 9.21062 173.983 9.45638 173.983 9.91717C173.983 10.3165 174.368 10.3933 175.602 10.6698C178.023 11.2228 179.381 11.6835 179.381 13.3731C179.381 15.2624 177.7 16.184 175.602 16.184ZM185.022 16.184C182.477 16.184 180.611 14.2793 180.611 11.7757C180.611 9.27206 182.477 7.36745 185.037 7.36745C187.104 7.36745 188.939 8.61159 189.263 10.762H186.996C186.734 9.84037 185.932 9.39494 185.037 9.39494C183.696 9.39494 182.832 10.378 182.847 11.7757C182.832 13.1888 183.726 14.1565 185.022 14.1565C185.932 14.1565 186.734 13.6957 186.996 12.7741H189.263C188.924 15.0012 187.058 16.184 185.022 16.184ZM194.872 7.36745C197.324 7.36745 199.298 9.22598 199.298 11.7757C199.298 14.3254 197.355 16.184 194.872 16.184C192.404 16.184 190.461 14.3101 190.461 11.7757C190.461 9.22598 192.435 7.36745 194.872 7.36745ZM194.872 9.45638C193.638 9.45638 192.682 10.3933 192.682 11.7757C192.682 13.1734 193.638 14.095 194.872 14.095C196.105 14.095 197.062 13.1734 197.062 11.7757C197.062 10.3933 196.105 9.45638 194.872 9.45638ZM210.523 7.55177H212.713L210.384 15.9996H207.839L207.053 13.1581L206.436 9.73285H206.143L205.526 13.1581L204.739 15.9996H202.195L199.866 7.55177H202.056L202.765 10.209L203.521 13.6035L204.261 10.209L204.971 7.55177H207.608L208.317 10.209L209.058 13.5728L209.813 10.209L210.523 7.55177Z" fill="white"/>
<path d="M64.7724 30.2153C65.4831 30.4303 65.816 31.0306 65.816 31.7922C65.816 32.8943 65.0513 33.5663 63.7289 33.5663H61.012V27.2943H63.6929C64.9164 27.2943 65.6091 27.8767 65.6091 28.9071C65.6091 29.5433 65.3392 29.9554 64.7724 30.2153ZM64.5835 29.0684C64.5835 28.5218 64.2956 28.262 63.5669 28.262H62.0285V29.8748H63.5759C64.3136 29.8748 64.5835 29.5791 64.5835 29.0684ZM63.7019 32.5986C64.5295 32.5986 64.7904 32.2492 64.7904 31.7116C64.7904 31.1381 64.5205 30.8066 63.6929 30.8066H62.0285V32.5986H63.7019ZM70.6311 28.6383H71.6477V33.5663H70.6311V32.7419C70.2712 33.3064 69.6775 33.6738 68.9038 33.6738C67.5813 33.6738 66.6187 32.6075 66.6187 31.1023C66.6187 29.597 67.5993 28.5308 68.8948 28.5308C69.6775 28.5308 70.2712 28.9161 70.6311 29.4806V28.6383ZM69.1197 32.7061C69.9834 32.7061 70.6401 32.052 70.6401 31.1023C70.6401 30.1615 69.9834 29.4985 69.1197 29.4985C68.2561 29.4985 67.6443 30.1615 67.6443 31.1023C67.6443 32.052 68.2651 32.7061 69.1197 32.7061ZM78.4655 28.6383H79.4821V33.5663H78.4655H75.6497H73.3376H72.8338V28.6383H73.8504V32.6165H75.6497V28.6383H76.6663V32.6165H78.4655V28.6383ZM86.7683 28.6383H87.9648V33.5663H86.9482V31.5055L87.0112 29.9465L84.5642 33.5663H83.3676V28.6383H84.3842V30.6991L84.3213 32.2492L86.7683 28.6383ZM92.7832 28.6383H93.7998V33.5663H92.7832V31.5324H90.1563V33.5663H89.1397V28.6383H90.1563V30.5737H92.7832V28.6383ZM98.8505 28.6383V29.5881H97.2401V33.5663H96.2235V29.5881H94.6042V28.6383H97.2401H98.8505ZM103.056 28.6383H104.253V33.5663H103.236V31.5055L103.299 29.9465L100.852 33.5663H99.6559V28.6383H100.672V30.6991L100.609 32.2492L103.056 28.6383ZM109.548 28.6383H110.745V33.5663H109.728V31.5055L109.8 29.7941L108.1 32.2044H108.073L106.373 29.7941L106.445 31.5055V33.5663H105.428V28.6383H106.625L108.082 30.6633L109.548 28.6383ZM115.573 28.6383H116.589V33.5663H115.573V31.5324H112.946V33.5663H111.929V28.6383H112.946V30.5737H115.573V28.6383ZM120.21 30.1794C121.226 30.1794 121.982 30.6543 121.982 31.837C121.982 33.0197 121.19 33.5663 120.174 33.5663H117.772V28.6383H118.788V30.1794H120.21ZM122.711 28.6383H123.727V33.5663H122.711V28.6383ZM120.138 32.5986C120.758 32.5986 120.956 32.276 120.956 31.837C120.956 31.38 120.776 31.0754 120.156 31.0754H118.788V32.5986H120.138ZM127.208 27.8947C126.417 27.8947 125.733 27.375 125.733 26.5059V26.2998H126.543V26.47C126.543 26.8732 126.803 27.1241 127.208 27.1241C127.604 27.1241 127.865 26.8732 127.865 26.47V26.2998H128.675V26.5059C128.675 27.375 127.991 27.8947 127.208 27.8947ZM128.306 28.6383H129.502V33.5663H128.486V31.5055L128.549 29.9465L126.102 33.5663H124.905V28.6383H125.922V30.6991L125.859 32.2492L128.306 28.6383ZM136.667 28.6383V29.5881H134.391V33.5663H133.375V28.6383H136.667ZM140.878 28.6383H142.075V33.5663H141.058V31.5055L141.121 29.9465L138.674 33.5663H137.478V28.6383H138.494V30.6991L138.431 32.2492L140.878 28.6383ZM148.162 32.6165H149.062V34.8475H148.045V33.5663H143.853V34.8475H142.836V32.6165H143.7C143.925 32.4463 144.069 32.07 144.186 31.3711L144.626 28.6383H148.162V32.6165ZM144.806 32.6165H147.145V29.5881H145.49L145.193 31.4159C145.103 31.9893 144.977 32.3656 144.806 32.6165ZM156.214 28.6383H157.231V33.5663H156.214V31.5324H153.587V33.5663H152.571V28.6383H153.587V30.5737H156.214V28.6383ZM162.264 28.6383H163.28V33.5663H162.264V32.7419C161.904 33.3064 161.31 33.6738 160.536 33.6738C159.214 33.6738 158.251 32.6075 158.251 31.1023C158.251 29.597 159.232 28.5308 160.527 28.5308C161.31 28.5308 161.904 28.9161 162.264 29.4806V28.6383ZM160.752 32.7061C161.616 32.7061 162.273 32.052 162.273 31.1023C162.273 30.1615 161.616 29.4985 160.752 29.4985C159.889 29.4985 159.277 30.1615 159.277 31.1023C159.277 32.052 159.898 32.7061 160.752 32.7061ZM171.824 33.5663H170.51L168.18 31.2904V33.5663H167.164V28.6383H168.18V30.7708L170.321 28.6383H171.626L169.206 30.9769L171.824 33.5663ZM175.96 28.6383H176.977V33.5663H175.96V32.7419C175.6 33.3064 175.006 33.6738 174.233 33.6738C172.91 33.6738 171.948 32.6075 171.948 31.1023C171.948 29.597 172.928 28.5308 174.224 28.5308C175.006 28.5308 175.6 28.9161 175.96 29.4806V28.6383ZM174.449 32.7061C175.312 32.7061 175.969 32.052 175.969 31.1023C175.969 30.1615 175.312 29.4985 174.449 29.4985C173.585 29.4985 172.973 30.1615 172.973 31.1023C172.973 32.052 173.594 32.7061 174.449 32.7061ZM186.089 33.5663H184.784L182.445 31.2904V33.5663H181.428V31.2904L179.089 33.5663H177.785L180.394 30.9769L177.974 28.6383H179.287L181.428 30.7797V28.6383H182.445V30.7797L184.586 28.6383H185.9L183.48 30.9769L186.089 33.5663ZM191.914 32.6165H192.813V34.8475H191.797V33.5663H187.604V34.8475H186.588V32.6165H187.452C187.676 32.4463 187.82 32.07 187.937 31.3711L188.378 28.6383H191.914V32.6165ZM188.558 32.6165H190.897V29.5881H189.242L188.945 31.4159C188.855 31.9893 188.729 32.3656 188.558 32.6165ZM196.064 30.1794C197.08 30.1794 197.836 30.6543 197.836 31.837C197.836 33.0197 197.044 33.5663 196.028 33.5663H193.626V28.6383H194.642V30.1794H196.064ZM198.565 28.6383H199.581V33.5663H198.565V28.6383ZM195.992 32.5986C196.612 32.5986 196.81 32.276 196.81 31.837C196.81 31.38 196.63 31.0754 196.01 31.0754H194.642V32.5986H195.992ZM203.062 27.8947C202.27 27.8947 201.587 27.375 201.587 26.5059V26.2998H202.396V26.47C202.396 26.8732 202.657 27.1241 203.062 27.1241C203.458 27.1241 203.719 26.8732 203.719 26.47V26.2998H204.528V26.5059C204.528 27.375 203.845 27.8947 203.062 27.8947ZM204.16 28.6383H205.356V33.5663H204.34V31.5055L204.403 29.9465L201.956 33.5663H200.759V28.6383H201.776V30.6991L201.713 32.2492L204.16 28.6383ZM214.176 32.6165H215.076V34.8475H214.059V33.5663H209.867V34.8475H208.851V32.6165H209.714C209.939 32.4463 210.083 32.07 210.2 31.3711L210.641 28.6383H214.176V32.6165ZM210.821 32.6165H213.16V29.5881H211.504L211.208 31.4159C211.118 31.9893 210.992 32.3656 210.821 32.6165ZM218.123 28.5308C219.715 28.5308 220.723 29.7583 220.624 31.38H216.602C216.683 32.285 217.322 32.7867 218.15 32.7867C218.743 32.7867 219.238 32.5359 219.472 32.052H220.525C220.138 33.1541 219.193 33.6738 218.141 33.6738C216.638 33.6738 215.568 32.5986 215.568 31.1112C215.568 29.6239 216.629 28.5308 218.123 28.5308ZM218.123 29.4089C217.349 29.4089 216.827 29.8927 216.656 30.5557H219.535C219.382 29.8837 218.869 29.4089 218.123 29.4089ZM225.259 28.6383H226.276V33.5663H225.259V31.5324H222.632V33.5663H221.616V28.6383H222.632V30.5737H225.259V28.6383ZM229.905 30.1794C230.922 30.1794 231.677 30.6543 231.677 31.837C231.677 33.0197 230.886 33.5663 229.869 33.5663H227.458V28.6383H228.475V30.1794H229.905ZM229.842 32.5986C230.463 32.5986 230.652 32.276 230.652 31.837C230.652 31.38 230.472 31.0754 229.851 31.0754H228.475V32.5986H229.842Z" fill="white"/>
</svg>
