<svg width="25" height="25" viewBox="0 0 25 25" fill="none" xmlns="http://www.w3.org/2000/svg">
<path d="M18.623 13.1297V16.8297C18.623 19.9497 15.713 22.4797 12.123 22.4797C8.53305 22.4797 5.62305 19.9497 5.62305 16.8297V13.1297C5.62305 16.2497 8.53305 18.4797 12.123 18.4797C15.713 18.4797 18.623 16.2497 18.623 13.1297Z" stroke="#7E1D32" stroke-width="1.5" stroke-linecap="round" stroke-linejoin="round"/>
<path d="M18.623 8.12968C18.623 9.03968 18.373 9.87967 17.933 10.5997C16.863 12.3597 14.663 13.4797 12.123 13.4797C9.58305 13.4797 7.38305 12.3597 6.31305 10.5997C5.87305 9.87967 5.62305 9.03968 5.62305 8.12968C5.62305 6.56968 6.35304 5.15968 7.52304 4.13968C8.70304 3.10968 10.323 2.47968 12.123 2.47968C13.923 2.47968 15.5431 3.10968 16.7231 4.12968C17.8931 5.15968 18.623 6.56968 18.623 8.12968Z" stroke="#7E1D32" stroke-width="1.5" stroke-linecap="round" stroke-linejoin="round"/>
<path d="M18.623 8.12968V13.1297C18.623 16.2497 15.713 18.4797 12.123 18.4797C8.53305 18.4797 5.62305 16.2497 5.62305 13.1297V8.12968C5.62305 5.00968 8.53305 2.47968 12.123 2.47968C13.923 2.47968 15.5431 3.10968 16.7231 4.12968C17.8931 5.15968 18.623 6.56968 18.623 8.12968Z" stroke="#7E1D32" stroke-width="1.5" stroke-linecap="round" stroke-linejoin="round"/>
</svg>
