<svg width="36" height="36" viewBox="0 0 36 36" fill="none" xmlns="http://www.w3.org/2000/svg">
<rect width="36" height="36" rx="10" fill="#7E1D32"/>
<path d="M11 11.25C10.5858 11.25 10.25 11.5858 10.25 12C10.25 12.4142 10.5858 12.75 11 12.75H25C25.4142 12.75 25.75 12.4142 25.75 12C25.75 11.5858 25.4142 11.25 25 11.25H11Z" fill="white"/>
<path d="M11 17.25C10.5858 17.25 10.25 17.5858 10.25 18C10.25 18.4142 10.5858 18.75 11 18.75H25C25.4142 18.75 25.75 18.4142 25.75 18C25.75 17.5858 25.4142 17.25 25 17.25H11Z" fill="white"/>
<path d="M11 23.25C10.5858 23.25 10.25 23.5858 10.25 24C10.25 24.4142 10.5858 24.75 11 24.75H25C25.4142 24.75 25.75 24.4142 25.75 24C25.75 23.5858 25.4142 23.25 25 23.25H11Z" fill="white"/>
</svg>
