<svg width="36" height="36" viewBox="0 0 36 36" fill="none" xmlns="http://www.w3.org/2000/svg">
<rect width="36" height="36" rx="10" fill="#7E1D32"/>
<path d="M25.5304 11.5303C25.8232 11.2374 25.8232 10.7626 25.5304 10.4697C25.2375 10.1768 24.7626 10.1768 24.4697 10.4697L18 16.9394L11.5303 10.4697C11.2374 10.1768 10.7626 10.1768 10.4697 10.4697C10.1768 10.7626 10.1768 11.2374 10.4697 11.5303L16.9394 18L10.4697 24.4697C10.1768 24.7626 10.1768 25.2374 10.4697 25.5303C10.7626 25.8232 11.2375 25.8232 11.5304 25.5303L18 19.0607L24.4697 25.5303C24.7626 25.8232 25.2374 25.8232 25.5303 25.5303C25.8232 25.2374 25.8232 24.7626 25.5303 24.4697L19.0607 18L25.5304 11.5303Z" fill="white"/>
</svg>
