<svg width="18" height="19" viewBox="0 0 18 19" fill="none" xmlns="http://www.w3.org/2000/svg">
<path d="M16.5 6.5V10.25C16.5 13.25 15 14.75 12 14.75H11.625C11.3925 14.75 11.1675 14.8625 11.025 15.05L9.9 16.55C9.405 17.21 8.595 17.21 8.1 16.55L6.975 15.05C6.855 14.885 6.5775 14.75 6.375 14.75H6C3 14.75 1.5 14 1.5 10.25V6.5C1.5 3.5 3 2 6 2H9" stroke="#6E6E6E" stroke-miterlimit="10" stroke-linecap="round" stroke-linejoin="round"/>
<path d="M11.4 3.965C11.1525 3.2225 11.445 2.3075 12.255 2.0525C12.675 1.925 13.2 2.03 13.5 2.4275C13.785 2.015 14.325 1.925 14.745 2.0525C15.555 2.3 15.8475 3.2225 15.6 3.965C15.2175 5.1425 13.875 5.75 13.5 5.75C13.125 5.75 11.7975 5.15 11.4 3.965Z" stroke="#6E6E6E" stroke-linecap="round" stroke-linejoin="round"/>
<path d="M11.9973 8.75H12.0041" stroke="#6E6E6E" stroke-width="2" stroke-linecap="round" stroke-linejoin="round"/>
<path d="M8.99661 8.75H9.00335" stroke="#6E6E6E" stroke-width="2" stroke-linecap="round" stroke-linejoin="round"/>
<path d="M5.99588 8.75H6.00262" stroke="#6E6E6E" stroke-width="2" stroke-linecap="round" stroke-linejoin="round"/>
</svg>
