<svg width="9" height="24" viewBox="0 0 9 24" fill="none" xmlns="http://www.w3.org/2000/svg">
<path d="M4.12525 0.0495815C4.07174 0.0880051 4.03881 0.0981159 3.98941 0.0900269C3.93795 0.0819378 3.90708 0.0920506 3.85974 0.132496C3.8124 0.170919 3.7733 0.183052 3.70949 0.183052C3.60864 0.18103 3.55718 0.219454 3.53866 0.308434C3.53043 0.356968 3.50779 0.379213 3.44193 0.409548C3.39459 0.42977 3.32049 0.47426 3.27727 0.506617C3.22581 0.547062 3.18671 0.561218 3.15995 0.553129C3.12908 0.543018 3.1229 0.547062 3.13113 0.571329C3.13731 0.589531 3.13319 0.603685 3.11879 0.603685C3.04469 0.603685 2.67421 0.953539 2.60423 1.09105C2.5713 1.15172 2.53014 1.21644 2.50955 1.23059C2.49103 1.24677 2.45193 1.29531 2.42517 1.33979C2.37989 1.41057 2.37577 1.43282 2.38812 1.54607C2.3943 1.61685 2.42928 1.75032 2.46222 1.84132C2.596 2.20331 2.6454 2.34284 2.6454 2.36307C2.6454 2.3752 2.6207 2.39542 2.58777 2.40958C2.55689 2.42373 2.45398 2.47834 2.35725 2.53496C2.22141 2.61383 2.11232 2.70281 1.87151 2.93941C1.70068 3.10524 1.54631 3.27107 1.52779 3.30545C1.4681 3.4187 1.49897 3.49756 1.66569 3.65126C1.83858 3.81304 1.90032 3.84337 2.47457 4.05976C2.71538 4.14874 2.96854 4.24985 3.04057 4.28221C3.11261 4.31456 3.20317 4.34692 3.24228 4.35501C3.34313 4.37523 3.42752 4.42174 3.42752 4.45612C3.42752 4.4905 3.28962 4.64824 3.25874 4.64824C3.24845 4.64824 3.26698 4.61184 3.30197 4.56937C3.33696 4.5269 3.36577 4.48443 3.36577 4.47635C3.36577 4.46826 3.34519 4.48646 3.32049 4.51881C3.23816 4.62802 3.06733 4.77362 2.96442 4.82418C2.36754 5.12145 1.99912 5.625 2.03411 6.10023C2.05469 6.39548 2.18642 6.62198 2.41899 6.76354C2.48691 6.80399 2.54454 6.83836 2.54454 6.84039C2.5466 6.84241 2.55072 7.14171 2.55484 7.50976C2.56513 8.41776 2.5466 8.51888 2.32226 8.7575C2.15966 8.93142 2.08145 9.05882 1.97236 9.32576C1.92091 9.44912 1.87151 9.56237 1.86122 9.5745C1.85093 9.58664 1.82829 9.63719 1.81182 9.68573C1.7933 9.73426 1.7192 9.9284 1.64511 10.1185C1.56895 10.3066 1.47839 10.5412 1.43928 10.6402C1.40018 10.7373 1.36931 10.8506 1.36931 10.893C1.36931 10.9335 1.35901 11.0002 1.34872 11.0386C1.33637 11.0771 1.30962 11.2267 1.28492 11.3723C1.24993 11.5887 1.2417 11.7525 1.23758 12.3127C1.23346 12.6848 1.22317 13.0265 1.21494 13.071C1.20671 13.1155 1.15525 13.2247 1.09968 13.3137C0.986478 13.4977 0.980304 13.5786 1.0791 13.5988C1.18407 13.6211 1.18818 13.6231 1.16554 13.6656C1.14084 13.708 1.15525 13.7283 1.20877 13.7283C1.22935 13.7283 1.24581 13.7303 1.24581 13.7323C1.25199 13.7707 1.29109 15.4472 1.28904 15.5281C1.28698 15.5888 1.28698 15.7991 1.28698 15.9932C1.28698 16.1873 1.27874 16.3876 1.2664 16.4381C1.2561 16.4887 1.22729 16.7536 1.20465 17.0306C1.18201 17.3057 1.14496 17.6656 1.12232 17.8294C1.03382 18.5008 0.990595 19.2167 1.00294 19.8922C1.00912 20.3209 1.00706 20.4665 0.986478 20.513C0.953547 20.5878 0.949431 20.695 0.978246 20.7476C0.994711 20.7779 0.992653 20.79 0.970013 20.7981C0.932965 20.8123 0.90415 20.9983 0.932965 21.0347C0.943256 21.0489 0.953547 21.1156 0.955605 21.1864C0.955605 21.2552 0.970013 21.3381 0.988537 21.3725C1.0544 21.4978 1.02764 21.8255 0.900033 22.4443C0.877393 22.5494 0.852695 22.6708 0.84652 22.7112C0.838287 22.7577 0.819763 22.7881 0.803298 22.7881C0.737435 22.7881 0.704503 22.8831 0.716853 23.0307C0.723027 23.1076 0.739493 23.1905 0.7539 23.2148C0.76625 23.241 0.803298 23.3503 0.834171 23.4574C0.865044 23.5666 0.906208 23.6799 0.924732 23.7082C0.963838 23.7689 0.996769 23.7709 1.2561 23.7284C1.54837 23.6819 1.53396 23.6758 1.53396 23.8275C1.53396 23.9711 1.56895 24.0277 1.63276 23.9873C1.66157 23.9711 1.66569 23.9408 1.65951 23.8316C1.65334 23.7102 1.65746 23.692 1.70274 23.6495C1.75007 23.6091 1.75625 23.5828 1.7686 23.3846C1.77683 23.2633 1.7933 23.146 1.80565 23.1258C1.81594 23.1035 1.82829 22.9761 1.8324 22.8406C1.83858 22.6849 1.85504 22.5413 1.8818 22.4443C1.90238 22.3614 1.94149 22.2198 1.96413 22.1328C1.98883 22.0439 2.00735 21.9407 2.00735 21.9023C2.00735 21.787 1.94766 21.601 1.84887 21.3947L1.75213 21.2006L1.75007 20.9175C1.74802 20.7617 1.73978 20.6121 1.73155 20.5838C1.71097 20.513 1.8077 20.1571 1.99706 19.5969C2.08351 19.3441 2.18024 19.0468 2.21317 18.9356C2.24405 18.8244 2.30373 18.6505 2.34284 18.5494C2.53837 18.0519 2.5466 17.9872 2.55072 17.0953L2.55484 16.3269L2.60835 16.1651C2.66392 16.0013 2.90062 15.1762 2.91914 15.0832C2.92531 15.0549 2.96854 14.8547 3.01382 14.6383C3.06116 14.4219 3.10644 14.2197 3.11261 14.1873C3.12702 14.1145 3.1476 14.1044 3.20729 14.1428C3.26286 14.1772 3.28344 14.1671 3.28344 14.0963C3.28344 14.0538 3.29168 14.0498 3.33284 14.0599C3.36165 14.066 3.38841 14.064 3.39664 14.0538C3.40282 14.0437 3.38224 13.9487 3.34931 13.8456C3.27109 13.5928 3.27727 13.4553 3.374 13.1115C3.41517 12.9659 3.47691 12.6929 3.5119 12.5048L3.57365 12.161L3.6601 12.0862C3.70743 12.0437 3.75477 12.0134 3.76506 12.0154C3.78359 12.0215 3.90296 12.2399 4.14789 12.7171C4.23228 12.8789 4.33519 13.067 4.37841 13.1378C4.42163 13.2065 4.45662 13.2672 4.45662 13.2712C4.45662 13.2753 4.50396 13.3582 4.56365 13.4573C4.67068 13.6393 4.67479 13.6534 4.6892 13.9305C4.6892 13.9588 4.68303 14.0559 4.67479 14.1469L4.65833 14.3127L4.73242 14.343C4.79211 14.3673 4.81887 14.3693 4.86003 14.3511C4.89091 14.337 4.91766 14.3349 4.92795 14.3471C4.93824 14.3572 5.00822 14.5513 5.08438 14.7798C5.2017 15.1257 5.38282 15.6171 5.4919 15.882C5.57835 16.0923 5.8171 16.521 5.95088 16.701C6.03527 16.8183 6.12378 16.9457 6.14436 16.9841C6.19581 17.0832 6.33577 17.4816 6.40163 17.7121C6.49837 18.06 6.57864 18.2642 6.75153 18.6019C6.84621 18.786 6.94089 18.968 6.96147 19.0064C7.02115 19.1136 7.30725 19.8194 7.37928 20.0378C7.4575 20.2784 7.50278 20.4645 7.50278 20.5534C7.50278 20.5919 7.51718 20.6606 7.53571 20.7051C7.56041 20.7678 7.56452 20.7921 7.546 20.8143C7.51924 20.8467 7.53365 20.9296 7.58099 21.0105C7.60775 21.059 7.6098 21.1278 7.58716 21.5808C7.5707 21.9367 7.55217 22.1349 7.52748 22.2238C7.49454 22.3432 7.48425 22.3573 7.40192 22.3998C7.29696 22.4544 7.26402 22.4908 7.24344 22.5757C7.23727 22.6081 7.21669 22.6526 7.20022 22.6708C7.16317 22.7112 7.16935 22.7577 7.2455 23.0489C7.30519 23.2795 7.36282 23.3867 7.46161 23.4554C7.52336 23.4999 7.53982 23.4999 7.77652 23.4878C7.91442 23.4797 8.06261 23.4675 8.10583 23.4615L8.18199 23.4493V23.5909C8.18199 23.7345 8.20257 23.779 8.26637 23.779C8.31577 23.779 8.32606 23.7385 8.32606 23.5505C8.32606 23.4473 8.34047 23.3381 8.36517 23.2552C8.51748 22.7517 8.56687 22.5636 8.65538 22.1349C8.73359 21.7668 8.73359 21.5666 8.65743 21.2815C8.61627 21.1318 8.52365 20.8831 8.49072 20.8366C8.48249 20.8244 8.47014 20.782 8.4619 20.7395C8.45367 20.699 8.42486 20.6202 8.3981 20.5676C8.3734 20.515 8.33841 20.4321 8.324 20.3815C8.31165 20.331 8.28078 20.2744 8.2602 20.2562C8.23344 20.2339 8.21286 20.1753 8.20051 20.0944C8.13671 19.6859 8.0338 18.8992 8.01733 18.6828C7.97205 18.1388 7.93294 17.973 7.74359 17.5099C7.57893 17.1034 7.45338 16.8628 7.25579 16.5716C6.84621 15.9669 6.71037 15.5948 6.54571 14.6282C6.52718 14.5169 6.49837 14.3612 6.48396 14.2844C6.43662 14.0458 6.42427 13.89 6.45103 13.89C6.46338 13.89 6.47367 13.8759 6.47367 13.8597C6.47367 13.8435 6.48602 13.8294 6.50249 13.8294C6.52307 13.8294 6.5313 13.8112 6.52924 13.7748C6.52718 13.7343 6.53542 13.7181 6.56012 13.7181C6.62598 13.7181 6.59099 13.6312 6.47573 13.5018C6.38928 13.4067 6.32136 13.255 6.28843 13.0811C6.26785 12.976 6.21639 12.6989 6.11554 12.1206C6.07438 11.8981 6.02292 11.6332 6.00028 11.5341C5.97558 11.433 5.95706 11.3116 5.95706 11.2631C5.955 11.2045 5.91795 11.0831 5.8418 10.8991C5.73477 10.6382 5.70184 10.5452 5.60716 10.2196C5.55159 10.0315 5.50837 9.92234 5.47544 9.88593C5.46103 9.86976 5.43839 9.80504 5.42398 9.74438C5.38488 9.57046 5.32519 9.40666 5.24698 9.25701C5.03498 8.84244 5.02675 8.67661 5.18729 8.01533C5.20581 7.93646 5.23051 7.80703 5.2408 7.72817C5.26962 7.50571 5.40546 7.12755 5.60922 6.71096C5.71419 6.4966 5.81504 6.25393 5.84592 6.14472C5.87679 6.03956 5.91384 5.92025 5.92824 5.88183C5.94471 5.8434 5.97147 5.75645 5.98999 5.68971C6.01057 5.62298 6.03321 5.54006 6.0435 5.50771C6.05585 5.47333 6.07232 5.33177 6.08261 5.19021C6.10525 4.89293 6.11966 4.82418 6.15465 4.83833C6.16906 4.84238 6.1917 4.83631 6.20404 4.82418C6.22051 4.808 6.23698 4.81204 6.26785 4.84035C6.30901 4.87676 6.30901 4.87676 6.31313 4.74733C6.31519 4.67655 6.3193 4.5997 6.32136 4.57746C6.32342 4.55521 6.32754 4.5087 6.32754 4.47635L6.3296 4.41568L6.37282 4.46623L6.41398 4.51679L6.40163 4.4359C6.39546 4.39141 6.39752 4.33074 6.40781 4.30445L6.42839 4.25389L6.45103 4.31052C6.46338 4.34287 6.47367 4.37725 6.47367 4.38737C6.47367 4.3995 6.48808 4.42174 6.50454 4.43792C6.5313 4.46623 6.53542 4.46421 6.53542 4.42983C6.53542 4.36917 6.59099 4.33276 6.64039 4.36108C6.67332 4.3813 6.67949 4.37928 6.67949 4.34894C6.67949 4.32872 6.6692 4.30243 6.65685 4.2903C6.6445 4.27816 6.63833 4.25592 6.64244 4.24176C6.64862 4.22558 6.67538 4.24783 6.70831 4.29839C6.77417 4.39545 6.88531 4.48646 6.93883 4.48646C6.96764 4.48646 6.97176 4.4723 6.96147 4.38332C6.94912 4.28018 6.94912 4.28018 6.98822 4.31456C7.03556 4.35703 7.03762 4.34894 7.00675 4.27007C6.9944 4.23974 6.96764 4.15278 6.945 4.07998C6.88326 3.86157 6.70625 3.51779 6.60334 3.4187C6.54571 3.36207 6.51689 3.30342 6.48396 3.17198C6.45515 3.05064 6.30696 2.72303 6.09908 2.31251C6.0538 2.22353 5.94677 2.04961 5.86444 1.92625C5.78005 1.8029 5.68949 1.66134 5.66479 1.6128C5.58864 1.47326 5.33136 1.07083 5.23257 0.937361C5.18317 0.870626 5.13172 0.791758 5.11937 0.759401C5.10702 0.729067 5.08644 0.7048 5.07409 0.7048C5.03498 0.7048 4.68508 0.356968 4.68714 0.32259C4.69538 0.221476 4.67891 0.140585 4.64186 0.102161C4.60687 0.0657597 4.57806 0.0596943 4.48132 0.0617161C4.40723 0.0637379 4.33931 0.0516052 4.29814 0.0313816C4.21375 -0.0131092 4.20964 -0.0131092 4.12525 0.0495815ZM3.04675 3.14973C3.05292 3.15984 3.04881 3.174 3.03646 3.18209C3.02617 3.18816 3.01588 3.18007 3.01588 3.16389C3.01588 3.12749 3.02822 3.12142 3.04675 3.14973ZM2.78947 5.02034C2.78947 5.02438 2.77301 5.04056 2.75448 5.05472C2.72155 5.08101 2.71949 5.07898 2.74625 5.04663C2.77301 5.01427 2.78947 5.00416 2.78947 5.02034Z" fill="#7E1D32"/>
</svg>
