<svg width="233" height="41" viewBox="0 0 233 41" fill="none" xmlns="http://www.w3.org/2000/svg">
<path d="M9.16924 1.38006C8.67091 1.44536 8.43115 1.51067 8.25721 1.62261C8.18199 1.66925 8.16319 1.7019 8.2055 1.72522C8.28071 1.77653 8.2243 1.85116 8.04566 1.93979C7.80119 2.06106 7.40159 2.34092 7.39689 2.39689C7.39219 2.42488 7.39219 2.47618 7.39689 2.50417C7.40159 2.53682 7.38279 2.56481 7.35458 2.56481C7.32637 2.56481 7.31227 2.58346 7.32637 2.60678C7.34048 2.62544 7.23235 2.77004 7.09131 2.9193C6.94558 3.06855 6.79044 3.27378 6.73873 3.36707C6.64 3.55831 6.61649 3.96877 6.69641 4.17867C6.72462 4.24863 6.76693 4.46319 6.79514 4.6591C6.82335 4.855 6.86096 5.03224 6.88446 5.06023C6.96438 5.16751 6.96908 5.3914 6.88446 5.54998C6.79044 5.73656 6.76693 5.8625 6.69641 6.45953C6.64 6.97261 6.74343 7.67693 6.88916 7.7189C6.96438 7.74223 6.96908 7.79354 6.95028 8.15269C6.93147 8.48386 6.94558 8.61912 7.0255 8.88499C7.08191 9.06223 7.14773 9.44005 7.17123 9.72457C7.19004 10.0044 7.26056 10.4802 7.32637 10.774C7.48151 11.5017 7.57084 12.2107 7.50502 12.276C7.48151 12.2993 7.32637 12.4019 7.16653 12.4999C6.77634 12.7377 6.16048 13.2975 6.01474 13.5447C5.74678 14.0018 5.59634 15.1539 5.70446 15.9188C5.8408 16.8703 5.8596 18.8667 5.76558 22.3649C5.72327 23.9601 5.69506 24.4312 5.61514 24.907C5.23435 27.1646 5.17323 27.6823 5.07451 29.4547C5.03219 30.1451 4.98518 30.938 4.96638 31.2085L4.92877 31.7076L4.6373 32.0621C4.48216 32.258 4.32702 32.4959 4.30351 32.5938C4.21419 32.911 4.19068 33.4661 4.2518 33.7879L4.30821 34.1004L4.03554 34.4549C3.8804 34.6555 3.60774 34.968 3.41969 35.1499C3.23634 35.3365 3.0624 35.5277 3.03419 35.579C2.99658 35.649 2.92606 35.6723 2.70511 35.691C2.49826 35.705 2.32431 35.7563 2.07985 35.8822C1.8918 35.9755 1.71316 36.0548 1.68495 36.0548C1.65204 36.0548 1.45459 36.1061 1.23834 36.1667C1.02208 36.2227 0.716506 36.302 0.561366 36.33C0.406227 36.3626 0.208778 36.4186 0.128857 36.4559C-0.0121782 36.5119 -0.0215806 36.5306 0.0254313 36.6332C0.0818455 36.7498 0.246387 36.8477 0.392124 36.8477C0.439136 36.8477 0.504952 36.8757 0.533159 36.913C0.627183 37.0203 0.815231 37.039 1.29005 36.9877C1.53451 36.9597 1.8965 36.9177 2.08925 36.899C2.31961 36.8757 2.52646 36.8197 2.691 36.7358C2.87905 36.6425 2.95897 36.6238 3.02949 36.6612C3.25045 36.7778 3.68295 36.6612 3.89451 36.4326C3.94622 36.3766 4.00264 36.3346 4.02614 36.3346C4.04965 36.3346 4.12957 36.288 4.20479 36.2367C4.31291 36.1574 4.37403 36.1434 4.51977 36.1714C4.61849 36.1901 4.72662 36.2227 4.75953 36.2507C4.83474 36.316 4.83004 36.5912 4.74542 36.8244C4.6514 37.0763 4.6561 37.1836 4.76893 37.3048C4.90526 37.4494 5.0604 37.4727 5.23905 37.3841C5.42239 37.2908 5.52112 37.0716 5.52112 36.7451C5.52582 36.6098 5.56813 36.3813 5.61984 36.2414C5.67156 36.1014 5.72327 35.8076 5.74207 35.593L5.77028 35.2059L5.93952 35.2339C6.31562 35.2945 7.0255 35.3132 7.37809 35.2712C7.58494 35.2432 7.93283 35.2012 8.15378 35.1732C8.37474 35.1452 8.71322 35.1033 8.90597 35.0753C9.09872 35.052 9.57824 34.996 9.96374 34.9587C10.3539 34.9167 10.8476 34.8467 11.0685 34.7954C11.2895 34.7488 11.6045 34.6928 11.7737 34.6788C11.9429 34.6601 12.4507 34.5855 12.902 34.5156C14.2183 34.301 14.6508 34.273 16.0612 34.2917C17.0343 34.301 17.3775 34.3197 17.4245 34.3663C17.5091 34.4503 17.5326 35.3411 17.4621 35.6863C17.401 35.9615 17.3258 36.1294 16.757 37.1976C16.2633 38.1258 15.8778 38.5829 15.5393 38.6482C15.262 38.7041 15.2197 38.9327 15.4547 39.1053C15.5582 39.1799 15.6522 39.1986 15.8543 39.1986C16.2915 39.1846 16.4984 39.0586 16.8181 38.6015C16.9121 38.4663 17.2365 38.2937 17.401 38.2937C17.4574 38.2937 17.5938 38.261 17.6972 38.219C17.9605 38.1118 18.1814 38.1631 18.313 38.3543C18.5998 38.7694 18.849 38.9467 19.1452 38.9467C19.2815 38.9467 19.399 38.9933 19.5777 39.1099C19.714 39.1986 19.8785 39.2825 19.9491 39.2965C20.0149 39.3105 20.1653 39.3525 20.2828 39.3898C20.7013 39.5204 21.2231 39.6463 21.3453 39.6463C21.4205 39.6463 21.5193 39.595 21.5992 39.5064C21.759 39.3385 21.8483 39.3338 22.2103 39.4831C22.53 39.6183 22.7087 39.6277 22.8544 39.5297C22.9625 39.4551 23.0236 39.2872 22.9531 39.2452C22.8826 39.1986 22.8074 38.9793 22.8168 38.8441C22.8262 38.7414 22.8027 38.7181 22.671 38.6901C22.5864 38.6715 22.342 38.5735 22.1257 38.4756C21.9095 38.373 21.7214 38.2937 21.7073 38.2937C21.6932 38.2937 21.5287 38.1817 21.3453 38.0418C21.162 37.9065 20.9175 37.734 20.8047 37.6593C20.6542 37.5614 20.5508 37.4308 20.4051 37.1649C19.4601 35.4204 19.5542 35.649 19.5071 34.954L19.4789 34.5249L20.0102 34.4922C20.3016 34.4736 20.7013 34.4549 20.894 34.4456C21.0867 34.4409 21.4722 34.3989 21.7496 34.357C22.027 34.3103 22.3655 34.2823 22.5018 34.2917L22.751 34.3057L22.8262 34.5389C22.8732 34.6648 23.0048 35.0753 23.1271 35.4484C23.2587 35.8496 23.4608 36.3486 23.6348 36.6845C23.8887 37.1696 23.9827 37.2955 24.3729 37.692C24.843 38.1631 25.4259 38.5829 25.755 38.6761C26.0606 38.7648 26.8269 38.7414 27.3252 38.6248C27.565 38.5689 27.7953 38.5082 27.8424 38.4849C27.8847 38.4616 28.0163 38.4056 28.1338 38.359C28.4676 38.2237 28.7732 38.0278 29.3279 37.6033C29.8027 37.2349 30.1459 37.0343 30.8323 36.7358C31.467 36.4559 33.0184 36.302 34.2454 36.3999C34.6497 36.4279 34.7954 36.4233 35.0446 36.358C35.2138 36.3113 35.4301 36.2787 35.5241 36.2833C35.7309 36.2927 36.1446 36.1014 36.2199 35.9662C36.328 35.7656 36.7041 35.7376 37.146 35.9009C37.3199 35.9662 37.3623 35.9615 37.5973 35.8962C37.7383 35.8542 37.9781 35.8216 38.1332 35.8216C38.4482 35.8216 39.0171 35.6863 39.2333 35.5604C39.6188 35.3318 39.6799 34.94 39.4167 34.329C39.0829 33.564 38.7397 33.2002 38.0721 32.9064L37.6537 32.7244L36.6665 32.6871C35.7074 32.6545 35.1574 32.5799 35.148 32.4866C35.1433 32.4586 35.1856 32.4259 35.2467 32.4119C35.4583 32.3513 35.8673 32.1507 35.9331 32.0714C35.9848 32.0108 35.9895 31.9688 35.9519 31.9129C35.8767 31.7916 35.7356 31.7916 35.3878 31.9175C35.2138 31.9828 34.88 32.0808 34.6544 32.1367C34.2501 32.2347 34.2266 32.2347 33.9116 32.1601C33.4838 32.0528 32.9384 32.0808 32.6423 32.2207C32.3743 32.342 32.1204 32.6172 32.0123 32.9017C31.9465 33.0696 31.9324 33.2002 31.9559 33.4894C31.97 33.6946 31.9653 33.8625 31.9465 33.8625C31.7913 33.8625 31.0063 33.5967 30.5079 33.3728C30.1506 33.2142 29.8216 33.1536 29.2339 33.1302C28.5287 33.1023 28.1009 33.1582 27.7436 33.3261C27.612 33.3914 27.4945 33.4428 27.4757 33.4428C27.4616 33.4428 27.4475 33.1629 27.4475 32.8224C27.4475 32.1507 27.3628 30.8354 27.2782 30.1264C27.2359 29.7859 27.2359 29.5434 27.2782 29.1003C27.3769 28.1114 27.3487 27.4864 27.1654 26.3996C26.935 25.0376 26.6247 24.17 26.1264 23.5077C25.7033 22.9433 24.9605 22.0851 24.6973 21.8519C24.2083 21.4227 23.6677 21.1429 22.9296 20.933C22.436 20.7931 21.5287 20.7931 20.941 20.933C20.6213 21.0076 20.4991 21.0169 20.3299 20.9796C20.2123 20.9563 19.7375 20.9283 19.2674 20.9237C18.2613 20.905 18.2472 20.9003 17.7066 20.4013C17.2929 20.0234 17.2694 19.9721 17.0954 19.2165C16.9967 18.7921 16.9215 18.3396 16.8745 17.8872C16.8557 17.7332 16.8134 17.4907 16.7805 17.3508C16.7428 17.2108 16.6911 16.9356 16.6629 16.7444C16.5501 16.0121 16.4279 15.499 16.2868 15.1912C16.2116 15.0186 16.1082 14.7761 16.0706 14.6548C15.8026 13.8712 15.2526 13.0922 14.4064 12.2993C13.988 11.9075 13.8469 11.8095 13.4003 11.595C13.1135 11.455 12.6998 11.2871 12.4789 11.2265C11.7361 11.0073 11.5762 10.914 11.4023 10.5642L11.2942 10.3449L11.5245 10.107C11.6562 9.97178 11.8066 9.79454 11.863 9.71058C11.9194 9.63128 11.9947 9.56132 12.0276 9.56132C12.0652 9.56132 12.1404 9.48669 12.2015 9.40273C12.2626 9.31411 12.3566 9.22082 12.4084 9.1975C12.4601 9.16952 12.6199 9.04358 12.7656 8.91764C13.0759 8.63778 13.3862 8.07339 13.4849 7.60229C13.579 7.16385 13.7341 6.80003 13.8845 6.68342C14.035 6.56681 14.2418 6.16568 14.2935 5.89981C14.3076 5.80653 14.3593 5.69458 14.4064 5.6526C14.5991 5.46603 14.6367 5.00892 14.4863 4.57047C14.4346 4.40722 14.082 4.02475 13.7294 3.74022C13.5507 3.60029 13.546 3.5863 13.6072 3.47435C13.7623 3.18517 13.4426 2.60212 12.8879 2.15434C12.2579 1.6506 11.9664 1.51067 11.2566 1.3754C10.8194 1.29144 9.8086 1.29144 9.16924 1.38006ZM9.77099 23.5217C9.83681 23.6057 9.97314 23.7363 10.0813 23.8109C10.1894 23.8902 10.4198 24.0674 10.5984 24.212C10.9886 24.5292 11.2378 24.6551 11.7173 24.7717C11.9382 24.8277 12.225 24.949 12.4554 25.0796C12.6622 25.2009 12.8879 25.3315 12.9584 25.3688C13.0947 25.4434 13.1276 25.5134 13.0383 25.5134C12.9537 25.5134 12.0652 26.0358 11.2472 26.5675C9.26326 27.8549 8.84956 28.1441 8.10677 28.7691C7.86231 28.9743 7.65546 29.1376 7.65076 29.1329C7.64135 29.1282 7.70247 28.937 7.78239 28.7038C7.99864 28.0694 8.32303 26.7961 8.38414 26.353C8.41235 26.1337 8.45466 25.5367 8.48287 25.0236C8.54868 23.7689 8.54398 23.7829 8.84956 23.7176C8.98589 23.685 9.19275 23.5963 9.31968 23.517C9.44191 23.4377 9.56414 23.3724 9.59705 23.3724C9.62996 23.3678 9.70517 23.4377 9.77099 23.5217ZM20.847 28.9836C20.847 29.1329 21.571 30.4902 21.8812 30.924C21.9283 30.9893 21.9847 31.1246 22.0035 31.2225C22.0317 31.3904 22.027 31.4044 21.9471 31.3718C21.9001 31.3485 21.7637 31.3018 21.6462 31.2645C21.5287 31.2272 21.397 31.1759 21.35 31.1526C21.2043 31.0779 20.5132 31.2225 20.1935 31.3998C20.0196 31.4977 19.7657 31.6936 19.4883 31.9502C19.4037 32.0295 19.3191 32.0854 19.3097 32.0714C19.2956 32.0574 19.2674 31.7076 19.2439 31.2878C19.2204 30.868 19.1828 30.3363 19.1593 30.1078C19.1264 29.7999 19.1311 29.674 19.1687 29.632C19.2016 29.604 19.4789 29.4781 19.7892 29.3568C20.0995 29.2355 20.438 29.0863 20.5414 29.0303C20.7624 28.909 20.847 28.895 20.847 28.9836ZM16.6159 30.7561C16.6159 30.7654 16.7005 31.0733 16.8087 31.4371C16.9121 31.8009 16.9873 32.1088 16.9779 32.1181C16.9356 32.1601 15.5629 31.8615 15.0175 31.6936C14.7213 31.605 14.4346 31.5304 14.3876 31.5304C14.3264 31.5304 14.3123 31.5164 14.3405 31.4884C14.3876 31.4418 15.135 31.1619 15.5111 31.0453C15.6428 31.008 15.906 30.924 16.0988 30.8634C16.442 30.7561 16.6159 30.7188 16.6159 30.7561Z" fill="#7E1D32"/>
<rect x="49.5769" width="0.69736" height="40.9594" fill="#F0F0F0"/>
<path d="M65.9806 5.24791C68.2939 5.24791 69.8207 6.59957 69.8207 8.85745C69.8207 11.1153 68.2939 12.5284 65.9806 12.5284H63.6518V15.9997H61.4464V5.24791H65.9806ZM65.888 10.4395C67.0293 10.4395 67.5845 9.82512 67.5845 8.88817C67.5845 7.93587 67.0293 7.33684 65.888 7.33684H63.6518V10.4395H65.888ZM76.1926 7.36756C76.393 7.36756 76.5473 7.38292 76.6861 7.39828V9.65616C76.5164 9.6408 76.393 9.62544 76.1463 9.62544C74.7429 9.62544 73.5399 10.2398 73.5399 12.2366V15.9997H71.3345V7.55188H73.5399V9.02641C74.0643 7.92051 74.9896 7.36756 76.1926 7.36756ZM81.9456 7.36756C84.3978 7.36756 86.3718 9.22609 86.3718 11.7758C86.3718 14.3255 84.4286 16.1841 81.9456 16.1841C79.4781 16.1841 77.5349 14.3102 77.5349 11.7758C77.5349 9.22609 79.5089 7.36756 81.9456 7.36756ZM81.9456 9.45649C80.7119 9.45649 79.7557 10.3934 79.7557 11.7758C79.7557 13.1735 80.7119 14.0951 81.9456 14.0951C83.1794 14.0951 84.1356 13.1735 84.1356 11.7758C84.1356 10.3934 83.1794 9.45649 81.9456 9.45649ZM91.8337 16.1841C89.5666 16.1841 87.9164 15.0782 87.608 13.2196H89.8442C90.0139 13.8955 90.5228 14.3562 91.8954 14.3562C92.867 14.3562 93.3297 14.1259 93.3297 13.6651C93.3297 13.0967 92.6665 13.0507 91.3865 12.7435C88.9806 12.1752 87.9936 11.6376 87.9936 10.1784C87.9936 8.39666 89.4741 7.36756 91.7103 7.36756C94.0699 7.36756 95.2266 8.50418 95.5196 10.0709H93.2834C93.1137 9.53328 92.6511 9.21073 91.6332 9.21073C90.7541 9.21073 90.2144 9.45649 90.2144 9.91728C90.2144 10.3166 90.5999 10.3934 91.8337 10.6699C94.255 11.2229 95.6122 11.6837 95.6122 13.3732C95.6122 15.2625 93.9311 16.1841 91.8337 16.1841ZM103.351 13.7265L103.721 15.5082C103.259 15.8154 102.21 16.1841 101.192 16.1841C99.4955 16.1841 98.0149 15.1703 98.0149 12.7435V9.62544H96.5036V7.55188H98.0149V5.72406L100.22 5.24791V7.55188H103.366V9.62544H100.22V12.6206C100.22 13.619 100.698 14.1412 101.577 14.1412C102.071 14.1412 102.657 13.9723 103.351 13.7265ZM106.272 3.6505C107.073 3.6505 107.644 4.18809 107.644 4.94072C107.644 5.69334 107.073 6.2463 106.272 6.2463C105.5 6.2463 104.899 5.69334 104.899 4.94072C104.899 4.18809 105.5 3.6505 106.272 3.6505ZM105.161 15.9997V7.55188H107.367V15.9997H105.161ZM115.445 13.7265L115.815 15.5082C115.352 15.8154 114.304 16.1841 113.286 16.1841C111.589 16.1841 110.109 15.1703 110.109 12.7435V9.62544H108.597V7.55188H110.109V5.72406L112.314 5.24791V7.55188H115.46V9.62544H112.314V12.6206C112.314 13.619 112.792 14.1412 113.671 14.1412C114.165 14.1412 114.751 13.9723 115.445 13.7265ZM122.822 7.55188H125.028V15.9997H122.822V14.8324C122.206 15.6925 121.373 16.1841 120.201 16.1841C118.335 16.1841 117.178 14.9092 117.178 12.851V7.55188H119.383V12.3748C119.383 13.4807 119.8 14.0951 120.941 14.0951C122.159 14.0951 122.822 13.3732 122.822 11.9908V7.55188ZM133.081 13.7265L133.451 15.5082C132.988 15.8154 131.94 16.1841 130.922 16.1841C129.225 16.1841 127.745 15.1703 127.745 12.7435V9.62544H126.233V7.55188H127.745V5.72406L129.95 5.24791V7.55188H133.096V9.62544H129.95V12.6206C129.95 13.619 130.428 14.1412 131.307 14.1412C131.801 14.1412 132.387 13.9723 133.081 13.7265ZM143.466 15.9997H140.644L137.174 12.3134V15.9997H134.968V4.17273H137.174V11.0693L140.397 7.55188H143.204L139.333 11.5761L143.466 15.9997ZM145.776 3.6505C146.578 3.6505 147.149 4.18809 147.149 4.94072C147.149 5.69334 146.578 6.2463 145.776 6.2463C145.005 6.2463 144.403 5.69334 144.403 4.94072C144.403 4.18809 145.005 3.6505 145.776 3.6505ZM144.666 15.9997V7.55188H146.871V15.9997H144.666ZM156.923 5.24791H159.468V15.9997H157.262V8.28914L154.255 12.8203H154.055L151.063 8.28914V15.9997H148.857V5.24791H151.387L154.163 9.37969L156.923 5.24791ZM165.714 7.36756C168.166 7.36756 170.14 9.22609 170.14 11.7758C170.14 14.3255 168.197 16.1841 165.714 16.1841C163.246 16.1841 161.303 14.3102 161.303 11.7758C161.303 9.22609 163.277 7.36756 165.714 7.36756ZM165.714 9.45649C164.48 9.45649 163.524 10.3934 163.524 11.7758C163.524 13.1735 164.48 14.0951 165.714 14.0951C166.948 14.0951 167.904 13.1735 167.904 11.7758C167.904 10.3934 166.948 9.45649 165.714 9.45649ZM175.602 16.1841C173.335 16.1841 171.685 15.0782 171.376 13.2196H173.613C173.782 13.8955 174.291 14.3562 175.664 14.3562C176.635 14.3562 177.098 14.1259 177.098 13.6651C177.098 13.0967 176.435 13.0507 175.155 12.7435C172.749 12.1752 171.762 11.6376 171.762 10.1784C171.762 8.39666 173.243 7.36756 175.479 7.36756C177.838 7.36756 178.995 8.50418 179.288 10.0709H177.052C176.882 9.53328 176.42 9.21073 175.402 9.21073C174.523 9.21073 173.983 9.45649 173.983 9.91728C173.983 10.3166 174.368 10.3934 175.602 10.6699C178.023 11.2229 179.381 11.6837 179.381 13.3732C179.381 15.2625 177.7 16.1841 175.602 16.1841ZM185.022 16.1841C182.477 16.1841 180.611 14.2794 180.611 11.7758C180.611 9.27217 182.477 7.36756 185.037 7.36756C187.104 7.36756 188.939 8.6117 189.263 10.7621H186.996C186.734 9.84048 185.932 9.39505 185.037 9.39505C183.696 9.39505 182.832 10.3781 182.847 11.7758C182.832 13.1889 183.726 14.1566 185.022 14.1566C185.932 14.1566 186.734 13.6958 186.996 12.7742H189.263C188.924 15.0014 187.058 16.1841 185.022 16.1841ZM194.872 7.36756C197.324 7.36756 199.298 9.22609 199.298 11.7758C199.298 14.3255 197.355 16.1841 194.872 16.1841C192.404 16.1841 190.461 14.3102 190.461 11.7758C190.461 9.22609 192.435 7.36756 194.872 7.36756ZM194.872 9.45649C193.638 9.45649 192.682 10.3934 192.682 11.7758C192.682 13.1735 193.638 14.0951 194.872 14.0951C196.105 14.0951 197.062 13.1735 197.062 11.7758C197.062 10.3934 196.105 9.45649 194.872 9.45649ZM210.523 7.55188H212.713L210.384 15.9997H207.839L207.053 13.1582L206.436 9.73296H206.143L205.526 13.1582L204.739 15.9997H202.195L199.866 7.55188H202.056L202.765 10.2091L203.521 13.6036L204.261 10.2091L204.971 7.55188H207.608L208.317 10.2091L209.058 13.5729L209.813 10.2091L210.523 7.55188Z" fill="#1B1D1F"/>
<path d="M64.7724 30.2152C65.4831 30.4303 65.816 31.0306 65.816 31.7922C65.816 32.8942 65.0513 33.5662 63.7289 33.5662H61.012V27.2943H63.6929C64.9164 27.2943 65.6091 27.8767 65.6091 28.9071C65.6091 29.5432 65.3392 29.9554 64.7724 30.2152ZM64.5835 29.0684C64.5835 28.5218 64.2956 28.262 63.5669 28.262H62.0285V29.8747H63.5759C64.3136 29.8747 64.5835 29.5791 64.5835 29.0684ZM63.7019 32.5985C64.5295 32.5985 64.7904 32.2491 64.7904 31.7115C64.7904 31.1381 64.5205 30.8066 63.6929 30.8066H62.0285V32.5985H63.7019ZM70.6311 28.6383H71.6477V33.5662H70.6311V32.7419C70.2712 33.3064 69.6775 33.6737 68.9038 33.6737C67.5813 33.6737 66.6187 32.6075 66.6187 31.1022C66.6187 29.597 67.5993 28.5308 68.8948 28.5308C69.6775 28.5308 70.2712 28.916 70.6311 29.4805V28.6383ZM69.1197 32.7061C69.9834 32.7061 70.6401 32.052 70.6401 31.1022C70.6401 30.1615 69.9834 29.4984 69.1197 29.4984C68.2561 29.4984 67.6443 30.1615 67.6443 31.1022C67.6443 32.052 68.2651 32.7061 69.1197 32.7061ZM78.4655 28.6383H79.4821V33.5662H78.4655H75.6497H73.3376H72.8338V28.6383H73.8504V32.6165H75.6497V28.6383H76.6663V32.6165H78.4655V28.6383ZM86.7683 28.6383H87.9648V33.5662H86.9482V31.5054L87.0112 29.9464L84.5642 33.5662H83.3676V28.6383H84.3842V30.699L84.3213 32.2491L86.7683 28.6383ZM92.7832 28.6383H93.7998V33.5662H92.7832V31.5323H90.1563V33.5662H89.1397V28.6383H90.1563V30.5736H92.7832V28.6383ZM98.8505 28.6383V29.588H97.2401V33.5662H96.2235V29.588H94.6042V28.6383H97.2401H98.8505ZM103.056 28.6383H104.253V33.5662H103.236V31.5054L103.299 29.9464L100.852 33.5662H99.6559V28.6383H100.672V30.699L100.609 32.2491L103.056 28.6383ZM109.548 28.6383H110.745V33.5662H109.728V31.5054L109.8 29.7941L108.1 32.2043H108.073L106.373 29.7941L106.445 31.5054V33.5662H105.428V28.6383H106.625L108.082 30.6632L109.548 28.6383ZM115.573 28.6383H116.589V33.5662H115.573V31.5323H112.946V33.5662H111.929V28.6383H112.946V30.5736H115.573V28.6383ZM120.21 30.1794C121.226 30.1794 121.982 30.6543 121.982 31.837C121.982 33.0197 121.19 33.5662 120.174 33.5662H117.772V28.6383H118.788V30.1794H120.21ZM122.711 28.6383H123.727V33.5662H122.711V28.6383ZM120.138 32.5985C120.758 32.5985 120.956 32.276 120.956 31.837C120.956 31.38 120.776 31.0754 120.156 31.0754H118.788V32.5985H120.138ZM127.208 27.8946C126.417 27.8946 125.733 27.3749 125.733 26.5058V26.2998H126.543V26.47C126.543 26.8732 126.803 27.1241 127.208 27.1241C127.604 27.1241 127.865 26.8732 127.865 26.47V26.2998H128.675V26.5058C128.675 27.3749 127.991 27.8946 127.208 27.8946ZM128.306 28.6383H129.502V33.5662H128.486V31.5054L128.549 29.9464L126.102 33.5662H124.905V28.6383H125.922V30.699L125.859 32.2491L128.306 28.6383ZM136.667 28.6383V29.588H134.391V33.5662H133.375V28.6383H136.667ZM140.878 28.6383H142.075V33.5662H141.058V31.5054L141.121 29.9464L138.674 33.5662H137.478V28.6383H138.494V30.699L138.431 32.2491L140.878 28.6383ZM148.162 32.6165H149.062V34.8475H148.045V33.5662H143.853V34.8475H142.836V32.6165H143.7C143.925 32.4462 144.069 32.0699 144.186 31.371L144.626 28.6383H148.162V32.6165ZM144.806 32.6165H147.145V29.588H145.49L145.193 31.4158C145.103 31.9893 144.977 32.3656 144.806 32.6165ZM156.214 28.6383H157.231V33.5662H156.214V31.5323H153.587V33.5662H152.571V28.6383H153.587V30.5736H156.214V28.6383ZM162.264 28.6383H163.28V33.5662H162.264V32.7419C161.904 33.3064 161.31 33.6737 160.536 33.6737C159.214 33.6737 158.251 32.6075 158.251 31.1022C158.251 29.597 159.232 28.5308 160.527 28.5308C161.31 28.5308 161.904 28.916 162.264 29.4805V28.6383ZM160.752 32.7061C161.616 32.7061 162.273 32.052 162.273 31.1022C162.273 30.1615 161.616 29.4984 160.752 29.4984C159.889 29.4984 159.277 30.1615 159.277 31.1022C159.277 32.052 159.898 32.7061 160.752 32.7061ZM171.824 33.5662H170.51L168.18 31.2904V33.5662H167.164V28.6383H168.18V30.7707L170.321 28.6383H171.626L169.206 30.9768L171.824 33.5662ZM175.96 28.6383H176.977V33.5662H175.96V32.7419C175.6 33.3064 175.006 33.6737 174.233 33.6737C172.91 33.6737 171.948 32.6075 171.948 31.1022C171.948 29.597 172.928 28.5308 174.224 28.5308C175.006 28.5308 175.6 28.916 175.96 29.4805V28.6383ZM174.449 32.7061C175.312 32.7061 175.969 32.052 175.969 31.1022C175.969 30.1615 175.312 29.4984 174.449 29.4984C173.585 29.4984 172.973 30.1615 172.973 31.1022C172.973 32.052 173.594 32.7061 174.449 32.7061ZM186.089 33.5662H184.784L182.445 31.2904V33.5662H181.428V31.2904L179.089 33.5662H177.785L180.394 30.9768L177.974 28.6383H179.287L181.428 30.7797V28.6383H182.445V30.7797L184.586 28.6383H185.9L183.48 30.9768L186.089 33.5662ZM191.914 32.6165H192.813V34.8475H191.797V33.5662H187.604V34.8475H186.588V32.6165H187.452C187.676 32.4462 187.82 32.0699 187.937 31.371L188.378 28.6383H191.914V32.6165ZM188.558 32.6165H190.897V29.588H189.242L188.945 31.4158C188.855 31.9893 188.729 32.3656 188.558 32.6165ZM196.064 30.1794C197.08 30.1794 197.836 30.6543 197.836 31.837C197.836 33.0197 197.044 33.5662 196.028 33.5662H193.626V28.6383H194.642V30.1794H196.064ZM198.565 28.6383H199.581V33.5662H198.565V28.6383ZM195.992 32.5985C196.612 32.5985 196.81 32.276 196.81 31.837C196.81 31.38 196.63 31.0754 196.01 31.0754H194.642V32.5985H195.992ZM203.062 27.8946C202.27 27.8946 201.587 27.3749 201.587 26.5058V26.2998H202.396V26.47C202.396 26.8732 202.657 27.1241 203.062 27.1241C203.458 27.1241 203.719 26.8732 203.719 26.47V26.2998H204.528V26.5058C204.528 27.3749 203.845 27.8946 203.062 27.8946ZM204.16 28.6383H205.356V33.5662H204.34V31.5054L204.403 29.9464L201.956 33.5662H200.759V28.6383H201.776V30.699L201.713 32.2491L204.16 28.6383ZM214.176 32.6165H215.076V34.8475H214.059V33.5662H209.867V34.8475H208.851V32.6165H209.714C209.939 32.4462 210.083 32.0699 210.2 31.371L210.641 28.6383H214.176V32.6165ZM210.821 32.6165H213.16V29.588H211.504L211.208 31.4158C211.118 31.9893 210.992 32.3656 210.821 32.6165ZM218.123 28.5308C219.715 28.5308 220.723 29.7583 220.624 31.38H216.602C216.683 32.2849 217.322 32.7867 218.15 32.7867C218.743 32.7867 219.238 32.5358 219.472 32.052H220.525C220.138 33.1541 219.193 33.6737 218.141 33.6737C216.638 33.6737 215.568 32.5985 215.568 31.1112C215.568 29.6239 216.629 28.5308 218.123 28.5308ZM218.123 29.4088C217.349 29.4088 216.827 29.8927 216.656 30.5557H219.535C219.382 29.8837 218.869 29.4088 218.123 29.4088ZM225.259 28.6383H226.276V33.5662H225.259V31.5323H222.632V33.5662H221.616V28.6383H222.632V30.5736H225.259V28.6383ZM229.905 30.1794C230.922 30.1794 231.677 30.6543 231.677 31.837C231.677 33.0197 230.886 33.5662 229.869 33.5662H227.458V28.6383H228.475V30.1794H229.905ZM229.842 32.5985C230.463 32.5985 230.652 32.276 230.652 31.837C230.652 31.38 230.472 31.0754 229.851 31.0754H228.475V32.5985H229.842Z" fill="#1B1D1F"/>
</svg>
